<svg width="14" height="14" viewBox="0 0 14 14" fill="none" xmlns="http://www.w3.org/2000/svg">
<path fill-rule="evenodd" clip-rule="evenodd" d="M0 7C0 6.51675 0.391751 6.125 0.875 6.125H12.25C12.7332 6.125 13.125 6.51675 13.125 7C13.125 7.48325 12.7332 7.875 12.25 7.875H0.875C0.391751 7.875 0 7.48325 0 7Z" fill="white"/>
<path fill-rule="evenodd" clip-rule="evenodd" d="M6.38128 0.256282C6.72299 -0.0854272 7.27701 -0.0854272 7.61872 0.256282L13.7437 6.38128C14.0854 6.72299 14.0854 7.27701 13.7437 7.61872L7.61872 13.7437C7.27701 14.0854 6.72299 14.0854 6.38128 13.7437C6.03957 13.402 6.03957 12.848 6.38128 12.5063L11.8876 7L6.38128 1.49372C6.03957 1.15201 6.03957 0.59799 6.38128 0.256282Z" fill="white"/>
</svg>
