<svg width="20" height="20" viewBox="0 0 20 20" fill="none" xmlns="http://www.w3.org/2000/svg">
<path d="M1.66831 8.02485C1.64914 8.36735 1.84081 8.68651 2.15247 8.82985L8.40581 11.6982L11.2741 17.9507C11.4108 18.2473 11.7075 18.4365 12.0316 18.4365L12.0791 18.4348C12.2464 18.4255 12.4069 18.3659 12.5398 18.2639C12.6727 18.162 12.7718 18.0223 12.8241 17.8632L17.4866 3.66985C17.5841 3.37151 17.5058 3.04235 17.2841 2.81985C17.0625 2.59735 16.7341 2.52151 16.4341 2.61735L2.23997 7.27985C2.08085 7.33218 1.94119 7.43126 1.83921 7.56416C1.73724 7.69705 1.67768 7.8576 1.66831 8.02485ZM15.3883 4.71568L11.9033 15.324L9.79164 10.7223C9.70858 10.5409 9.56307 10.3954 9.38164 10.3123L4.77831 8.20068L15.3883 4.71568Z" fill="#E30613"/>
</svg>
