<svg width="12" height="14" viewBox="0 0 12 14" fill="none" xmlns="http://www.w3.org/2000/svg">
<path fill-rule="evenodd" clip-rule="evenodd" d="M5.4 2.33333C5.4 2.6555 5.13137 2.91667 4.8 2.91667L0.599999 2.91667C0.268629 2.91667 -1.16076e-07 2.6555 -1.01993e-07 2.33333C-8.79109e-08 2.01117 0.268629 1.75 0.599999 1.75L4.8 1.75C5.13137 1.75 5.4 2.01117 5.4 2.33333Z" fill="#8D8D8D"/>
<path fill-rule="evenodd" clip-rule="evenodd" d="M12 2.33333C12 2.6555 11.7314 2.91667 11.4 2.91667L7.2 2.91667C6.86863 2.91667 6.6 2.6555 6.6 2.33333C6.6 2.01117 6.86863 1.75 7.2 1.75L11.4 1.75C11.7314 1.75 12 2.01117 12 2.33333Z" fill="#8D8D8D"/>
<path fill-rule="evenodd" clip-rule="evenodd" d="M6.6 7C6.6 7.32217 6.33137 7.58333 6 7.58333L0.599999 7.58333C0.268628 7.58333 -3.20062e-07 7.32217 -3.0598e-07 7C-2.91897e-07 6.67783 0.268628 6.41667 0.599999 6.41667L6 6.41667C6.33137 6.41667 6.6 6.67783 6.6 7Z" fill="#8D8D8D"/>
<path fill-rule="evenodd" clip-rule="evenodd" d="M12 7C12 7.32217 11.7314 7.58333 11.4 7.58333L8.4 7.58333C8.06863 7.58333 7.8 7.32217 7.8 7C7.8 6.67783 8.06863 6.41667 8.4 6.41667L11.4 6.41667C11.7314 6.41667 12 6.67783 12 7Z" fill="#8D8D8D"/>
<path fill-rule="evenodd" clip-rule="evenodd" d="M4.2 11.6667C4.2 11.9888 3.93137 12.25 3.6 12.25L0.599999 12.25C0.268629 12.25 -5.24049e-07 11.9888 -5.09966e-07 11.6667C-4.95884e-07 11.3445 0.268629 11.0833 0.599999 11.0833L3.6 11.0833C3.93137 11.0833 4.2 11.3445 4.2 11.6667Z" fill="#8D8D8D"/>
<path fill-rule="evenodd" clip-rule="evenodd" d="M12 11.6667C12 11.9888 11.7314 12.25 11.4 12.25L6 12.25C5.66863 12.25 5.4 11.9888 5.4 11.6667C5.4 11.3445 5.66863 11.0833 6 11.0833L11.4 11.0833C11.7314 11.0833 12 11.3445 12 11.6667Z" fill="#8D8D8D"/>
<path fill-rule="evenodd" clip-rule="evenodd" d="M4.8 -3.14722e-07C5.13137 -3.00237e-07 5.4 0.261167 5.4 0.583333L5.4 4.08333C5.4 4.4055 5.13137 4.66667 4.8 4.66667C4.46863 4.66667 4.2 4.4055 4.2 4.08333L4.2 0.583333C4.2 0.261167 4.46863 -3.29207e-07 4.8 -3.14722e-07Z" fill="#8D8D8D"/>
<path fill-rule="evenodd" clip-rule="evenodd" d="M8.4 4.66667C8.73137 4.66667 9 4.92783 9 5.25L9 8.75C9 9.07217 8.73137 9.33333 8.4 9.33333C8.06863 9.33333 7.8 9.07217 7.8 8.75L7.8 5.25C7.8 4.92783 8.06863 4.66667 8.4 4.66667Z" fill="#8D8D8D"/>
<path fill-rule="evenodd" clip-rule="evenodd" d="M3.6 9.33333C3.93137 9.33333 4.2 9.5945 4.2 9.91667L4.2 13.4167C4.2 13.7388 3.93137 14 3.6 14C3.26863 14 3 13.7388 3 13.4167L3 9.91667C3 9.5945 3.26863 9.33333 3.6 9.33333Z" fill="#8D8D8D"/>
</svg>
