<svg width="6" height="46" viewBox="0 0 6 46" fill="none" xmlns="http://www.w3.org/2000/svg">
<path fill-rule="evenodd" clip-rule="evenodd" d="M0 0H417V5.61713C415.159 6.00985 413.785 7.54726 413.785 9.38399C413.785 11.2207 415.159 12.7581 417 13.1508V19.2331C415.159 19.6259 413.785 21.1633 413.785 23C413.785 24.8367 415.159 26.3741 417 26.7669V32.8491C415.159 33.2418 413.785 34.7793 413.785 36.616C413.785 38.4527 415.159 39.9901 417 40.3828V46H0V40.4757C2.19648 40.3801 3.94581 38.6886 3.94581 36.616C3.94581 34.5433 2.19648 32.8519 0 32.7562V26.8597C2.19648 26.7641 3.94581 25.0726 3.94581 23C3.94581 20.9274 2.19648 19.2359 0 19.1403V13.2437C2.19648 13.1481 3.94581 11.4566 3.94581 9.38399C3.94581 7.31135 2.19648 5.61985 0 5.52425V0Z" fill="#F7DC4F"/>
</svg>
