<svg width="6" height="46" viewBox="0 0 6 46" fill="none" xmlns="http://www.w3.org/2000/svg">
<g clip-path="url(#clip0_502_895)">
<path fill-rule="evenodd" clip-rule="evenodd" d="M-411 0H6V5.61713C4.15869 6.00985 2.78491 7.54726 2.78491 9.38399C2.78491 11.2207 4.15869 12.7581 6 13.1508V19.2331C4.15869 19.6259 2.78491 21.1633 2.78491 23C2.78491 24.8367 4.15869 26.3741 6 26.7669V32.8491C4.15869 33.2418 2.78491 34.7793 2.78491 36.616C2.78491 38.4527 4.15869 39.9901 6 40.3828V46H-411V40.4757C-408.804 40.3801 -407.054 38.6886 -407.054 36.616C-407.054 34.5433 -408.804 32.8519 -411 32.7562V26.8597C-408.804 26.7641 -407.054 25.0726 -407.054 23C-407.054 20.9274 -408.804 19.2359 -411 19.1403V13.2437C-408.804 13.1481 -407.054 11.4566 -407.054 9.38399C-407.054 7.31135 -408.804 5.61985 -411 5.52425V0Z" fill="#F7DC4F"/>
</g>
<defs>
<clipPath id="clip0_502_895">
<rect width="6" height="46" fill="white"/>
</clipPath>
</defs>
</svg>
