<svg width="31" height="29" viewBox="0 0 31 29" fill="none" xmlns="http://www.w3.org/2000/svg">
<path d="M23.718 6.6568C23.718 7.59594 23.0343 8.16709 22.535 8.58623C22.346 8.74499 21.994 9.03466 21.995 9.14287C21.9984 9.5673 21.6571 9.90625 21.2326 9.90625C21.2305 9.90625 21.2283 9.90625 21.2262 9.90625C20.8047 9.90625 20.4612 9.57772 20.4578 9.15542C20.451 8.32303 21.0585 7.82455 21.5466 7.41472C21.9296 7.09311 22.1808 6.8668 22.1808 6.65971C22.1808 6.24048 21.8397 5.89939 21.4205 5.89939C21.0011 5.89939 20.6599 6.24048 20.6599 6.65971C20.6599 7.08423 20.3158 7.4283 19.8913 7.4283C19.4668 7.4283 19.1227 7.08423 19.1227 6.65971C19.1227 5.39289 20.1534 4.3622 21.4203 4.3622C22.6873 4.36212 23.718 5.3899 23.718 6.6568ZM21.2475 10.6158C20.8229 10.6158 20.4959 10.9598 20.4959 11.3843V11.3902C20.4959 11.8148 20.823 12.1559 21.2475 12.1559C21.6719 12.1559 22.0161 11.8089 22.0161 11.3843C22.0161 10.9598 21.672 10.6158 21.2475 10.6158ZM5.75524 15.9697C5.33072 15.9697 4.98664 16.3138 4.98664 16.7383C4.98664 17.1628 5.33072 17.5069 5.75524 17.5069H5.81929C6.24381 17.5069 6.58788 17.1628 6.58788 16.7383C6.58788 16.3138 6.24381 15.9697 5.81929 15.9697H5.75524ZM8.42645 15.9697C8.00193 15.9697 7.65785 16.3138 7.65785 16.7383C7.65785 17.1628 8.00193 17.5069 8.42645 17.5069H8.49041C8.91493 17.5069 9.25901 17.1628 9.25901 16.7383C9.25901 16.3138 8.91493 15.9697 8.49041 15.9697H8.42645ZM31 3.69361V12.3447C31 14.393 29.3576 16.0551 27.3093 16.0551H17.3417C17.1468 16.0551 16.9864 16.054 16.8521 16.0512C16.7115 16.0483 16.5531 16.0472 16.4914 16.054C16.4271 16.0967 16.2694 16.2411 16.1175 16.3811C16.0573 16.4365 15.9892 16.4975 15.9156 16.5646L13.0956 19.1349C12.8706 19.3402 12.5378 19.3933 12.2593 19.2705C11.9807 19.1476 11.7851 18.8717 11.7851 18.5673V10.4187H3.73366C2.53278 10.4187 1.53719 11.4028 1.53719 12.6035V21.2546C1.53719 22.4554 2.53286 23.3994 3.73366 23.3994H14.8675C15.0593 23.3994 15.2386 23.4875 15.3802 23.6168L17.6777 25.735V18.4301C17.6777 18.0055 18.0218 17.6615 18.4463 17.6615C18.8708 17.6615 19.2149 18.0055 19.2149 18.4301V27.4771C19.2149 27.7815 19.0407 28.0533 18.762 28.1762C18.6623 28.2202 18.5623 28.2375 18.4575 28.2375C18.2692 28.2375 18.0836 28.1602 17.9392 28.0284L14.5696 24.9366H3.73366C1.68527 24.9366 0 23.3029 0 21.2545V12.6035C0 10.5552 1.68527 8.88154 3.73366 8.88154H11.7851V3.69361C11.7851 1.64522 13.4833 0 15.5317 0H27.3094C29.3576 0 31 1.64522 31 3.69361ZM29.4628 3.69361C29.4628 2.49281 28.51 1.53719 27.3093 1.53719H15.5317C14.3309 1.53719 13.3223 2.49281 13.3223 3.69361V9.65731V16.8252L14.8676 15.4287C14.9392 15.3634 15.0194 15.3036 15.0779 15.2496C15.7835 14.5994 15.9641 14.4954 16.8845 14.5144C17.01 14.5171 17.1596 14.518 17.3417 14.518H27.3093C28.51 14.518 29.4628 13.5455 29.4628 12.3447V3.69361Z" fill="#E30613"/>
</svg>
