<svg width="17" height="21" viewBox="0 0 17 21" fill="none" xmlns="http://www.w3.org/2000/svg">
<path fill-rule="evenodd" clip-rule="evenodd" d="M8.5 1.69751C6.69653 1.69751 4.96692 2.41289 3.69167 3.68627C2.41643 4.95965 1.7 6.68673 1.7 8.48756C1.7 11.1171 3.41338 13.6686 5.29206 15.6487C6.21402 16.6205 7.13887 17.416 7.83418 17.9689C8.09295 18.1746 8.31897 18.346 8.5 18.4796C8.68103 18.346 8.90705 18.1746 9.16582 17.9689C9.86113 17.416 10.786 16.6205 11.7079 15.6487C13.5866 13.6686 15.3 11.1171 15.3 8.48756C15.3 6.68673 14.5836 4.95965 13.3083 3.68627C12.0331 2.41289 10.3035 1.69751 8.5 1.69751ZM8.5 19.5214C8.02851 20.2276 8.02829 20.2275 8.02804 20.2273L8.02562 20.2257L8.01995 20.2219L8.00047 20.2087C7.98392 20.1975 7.96031 20.1814 7.93012 20.1605C7.86975 20.1187 7.78299 20.0579 7.67362 19.979C7.45496 19.8213 7.14541 19.5912 6.7752 19.2968C6.03613 18.7092 5.04848 17.8602 4.05794 16.8162C2.11162 14.7648 0 11.7994 0 8.48756C5.06639e-08 6.23652 0.895533 4.07768 2.48959 2.48595C4.08365 0.894223 6.24566 0 8.5 0C10.7543 0 12.9163 0.894223 14.5104 2.48595C16.1045 4.07768 17 6.23652 17 8.48756C17 11.7994 14.8884 14.7648 12.9421 16.8162C11.9515 17.8602 10.9639 18.7092 10.2248 19.2968C9.85459 19.5912 9.54504 19.8213 9.32638 19.979C9.21701 20.0579 9.13025 20.1187 9.06988 20.1605C9.03969 20.1814 9.01608 20.1975 8.99953 20.2087L8.98005 20.2219L8.97439 20.2257L8.97259 20.2269C8.97235 20.227 8.9715 20.2276 8.5 19.5214ZM8.5 19.5214L8.9715 20.2276C8.68598 20.4177 8.31356 20.4174 8.02804 20.2273L8.5 19.5214Z" fill="#E30613"/>
<path fill-rule="evenodd" clip-rule="evenodd" d="M8.50012 6.79005C7.56123 6.79005 6.80011 7.55006 6.80011 8.48757C6.80011 9.42509 7.56123 10.1851 8.50012 10.1851C9.43901 10.1851 10.2001 9.42509 10.2001 8.48757C10.2001 7.55006 9.43901 6.79005 8.50012 6.79005ZM5.1001 8.48757C5.1001 6.61254 6.62234 5.09253 8.50012 5.09253C10.3779 5.09253 11.9001 6.61254 11.9001 8.48757C11.9001 10.3626 10.3779 11.8826 8.50012 11.8826C6.62234 11.8826 5.1001 10.3626 5.1001 8.48757Z" fill="#E30613"/>
</svg>
