<svg width="292" height="607" viewBox="0 0 292 607" fill="none" xmlns="http://www.w3.org/2000/svg">
<rect x="20" y="66" width="252" height="470" fill="#FAFAFA"/>
<path d="M50.521 509.921C50.3676 509.767 50.0609 509.767 49.8309 509.921L45 514.676V520.276C45 520.429 45.0767 520.659 45.23 520.736C45.3834 520.889 45.5368 520.966 45.6901 520.966H48.834V516.901H51.5945V520.966H54.7384C54.8918 520.966 55.1218 520.889 55.1985 520.736C55.3518 520.582 55.4285 520.429 55.4285 520.276V514.676V514.6L50.521 509.921Z" fill="#D0D0CF"/>
<path d="M189.849 520.659C189.619 520.659 189.466 520.582 189.312 520.428L185.172 516.287C185.172 516.287 185.095 516.21 185.018 516.133C184.942 516.056 184.788 515.903 184.635 515.673C184.482 515.443 184.328 515.213 184.175 514.983C184.021 514.752 183.868 514.446 183.791 514.062C183.638 513.679 183.638 513.372 183.638 512.988C183.638 511.914 183.945 510.994 184.558 510.38C185.172 509.767 186.092 509.46 187.165 509.46C187.472 509.46 187.779 509.537 188.086 509.613C188.392 509.69 188.699 509.843 189.006 510.074C189.236 510.227 189.466 510.38 189.696 510.534C189.772 510.611 189.849 510.687 190.003 510.764C190.079 510.687 190.156 510.611 190.309 510.534C190.463 510.38 190.693 510.227 190.999 510.074C191.306 509.92 191.536 509.767 191.92 509.613C192.226 509.537 192.533 509.46 192.84 509.46C193.913 509.46 194.833 509.767 195.447 510.38C196.06 510.994 196.367 511.914 196.367 512.988C196.367 514.062 195.83 515.213 194.757 516.287L190.616 520.428C190.233 520.582 190.079 520.659 189.849 520.659Z" fill="#D0D0CF"/>
<path d="M242.222 516.44H234.477C234.017 516.44 233.48 516.594 233.097 516.901C232.253 517.591 231.563 518.665 231.563 520.506H237.544H245.136C245.136 518.665 244.446 517.668 243.602 516.977C243.219 516.594 242.759 516.44 242.222 516.44Z" fill="#D0D0CF"/>
<path d="M238.311 515.29C240.047 515.29 241.455 513.882 241.455 512.145C241.455 510.408 240.047 509 238.311 509C236.575 509 235.167 510.408 235.167 512.145C235.167 513.882 236.575 515.29 238.311 515.29Z" fill="#D0D0CF"/>
<path d="M101.437 520.352L98.7529 517.591C99.443 516.747 99.8265 515.75 99.8265 514.676C99.8265 512.145 97.8328 510.15 95.3023 510.15C92.7719 510.15 90.7782 512.221 90.7782 514.676C90.7782 517.207 92.7719 519.201 95.3023 519.201C96.2225 519.201 97.1426 518.895 97.9094 518.358L100.593 521.119C100.67 521.272 100.823 521.272 101.053 521.272C101.207 521.272 101.36 521.196 101.437 521.119C101.667 520.965 101.667 520.582 101.437 520.352ZM95.3023 511.378C97.1426 511.378 98.6762 512.912 98.6762 514.753C98.6762 516.593 97.1426 518.127 95.3023 518.127C93.462 518.127 91.9284 516.593 91.9284 514.753C91.9284 512.835 93.462 511.378 95.3023 511.378Z" fill="#D0D0CF"/>
<path d="M145.988 509.46H139.087C137.937 509.46 136.94 510.457 136.94 511.608V518.511C136.94 519.661 137.937 520.659 139.087 520.659H145.988C147.138 520.659 148.135 519.661 148.135 518.511V511.608C148.135 510.457 147.215 509.46 145.988 509.46ZM145.835 515.826H143.304V518.358C143.304 518.511 143.151 518.664 142.997 518.664H142.231C142.077 518.664 141.924 518.511 141.924 518.358V515.826H139.393C139.24 515.826 139.087 515.673 139.087 515.52V514.752C139.087 514.599 139.24 514.446 139.393 514.446H141.924V511.914C141.924 511.761 142.077 511.608 142.231 511.608H142.997C143.151 511.608 143.304 511.761 143.304 511.914V514.446H145.835C145.988 514.446 146.141 514.599 146.141 514.752V515.52C146.141 515.673 145.988 515.826 145.835 515.826Z" fill="#D0D0CF"/>
<path d="M145.097 29.4069C143.15 29.4069 141.556 27.7559 141.556 25.7381C141.556 23.7203 143.15 22.0693 145.097 22.0693C147.045 22.0693 148.639 23.7203 148.639 25.7381C148.639 27.7559 147.045 29.4069 145.097 29.4069ZM145.097 22.9865C143.681 22.9865 142.442 24.2706 142.442 25.7381C142.442 27.2056 143.681 28.4897 145.097 28.4897C146.514 28.4897 147.753 27.2056 147.753 25.7381C147.753 24.0872 146.691 22.9865 145.097 22.9865Z" fill="#F7F7F7"/>
<path d="M106.675 47.9352C104.019 47.9352 101.718 45.7339 101.718 42.7989C101.718 40.0473 103.842 37.6626 106.675 37.6626C109.508 37.6626 111.633 39.8639 111.633 42.7989C111.456 45.7339 109.331 47.9352 106.675 47.9352ZM106.675 38.7632C104.373 38.7632 102.603 40.5976 102.603 42.9823C102.603 45.367 104.373 47.2014 106.675 47.2014C108.977 47.2014 110.748 45.367 110.748 42.9823C110.571 40.5976 108.8 38.7632 106.675 38.7632Z" fill="#F7F7F7"/>
<path d="M161.564 45.1828H128.277C126.86 45.1828 125.621 43.8988 125.621 42.4313C125.621 40.9638 126.86 39.6797 128.277 39.6797H161.564C162.981 39.6797 164.22 40.9638 164.22 42.4313C164.22 43.8988 162.981 45.1828 161.564 45.1828ZM128.277 40.7803C127.391 40.7803 126.506 41.5141 126.506 42.6147C126.506 43.5319 127.214 44.4491 128.277 44.4491H161.564C162.449 44.4491 163.335 43.7153 163.335 42.6147C163.335 41.6975 162.626 40.7803 161.564 40.7803H128.277Z" fill="#F7F7F7"/>
<path d="M146.284 586.168C137.076 586.168 129.463 578.28 129.463 568.741C129.463 559.202 137.076 551.314 146.284 551.314C155.491 551.314 163.104 559.202 163.104 568.741C163.104 578.463 155.491 586.168 146.284 586.168ZM146.284 552.232C137.431 552.232 130.348 559.569 130.348 568.741C130.348 577.913 137.431 585.251 146.284 585.251C155.137 585.251 162.219 577.913 162.219 568.741C162.219 559.753 155.137 552.232 146.284 552.232Z" fill="#F7F7F7"/>
<path d="M146.284 589.654C135.129 589.654 126.276 580.299 126.276 568.926C126.276 557.369 135.306 548.197 146.284 548.197C157.438 548.197 166.292 557.553 166.292 568.926C166.469 580.299 157.438 589.654 146.284 589.654ZM146.284 548.931C135.66 548.931 127.161 557.92 127.161 568.742C127.161 579.749 135.837 588.554 146.284 588.554C156.907 588.554 165.406 579.565 165.406 568.742C165.583 557.736 156.907 548.931 146.284 548.931Z" fill="#F7F7F7"/>
<path d="M272.163 535.771H19.4003V70.229H272.163V535.771ZM20.2841 534.853H271.279V71.1465H20.2841V534.853Z" fill="#F7F7F7"/>
<rect x="14.7327" y="61.1777" width="262.553" height="479.543" fill="#FAFAFA"/>
<path d="M46.5318 514.113C46.372 513.956 46.0525 513.956 45.8128 514.113L40.7796 518.965V524.678C40.7796 524.834 40.8595 525.069 41.0193 525.147C41.1791 525.304 41.3389 525.382 41.4987 525.382H44.7742V521.234H47.6503V525.382H50.9258C51.0856 525.382 51.3253 525.304 51.4052 525.147C51.565 524.991 51.6449 524.834 51.6449 524.678V518.965V518.886L46.5318 514.113Z" fill="#D0D0CF"/>
<path d="M191.695 525.068C191.455 525.068 191.295 524.989 191.135 524.833L186.821 520.607C186.821 520.607 186.741 520.529 186.661 520.45C186.582 520.372 186.422 520.215 186.262 519.981C186.102 519.746 185.942 519.511 185.783 519.276C185.623 519.042 185.463 518.729 185.383 518.337C185.223 517.946 185.223 517.633 185.223 517.242C185.223 516.146 185.543 515.207 186.182 514.581C186.821 513.955 187.78 513.642 188.898 513.642C189.218 513.642 189.537 513.72 189.857 513.798C190.177 513.876 190.496 514.033 190.816 514.268C191.055 514.424 191.295 514.581 191.535 514.737C191.615 514.816 191.695 514.894 191.854 514.972C191.934 514.894 192.014 514.816 192.174 514.737C192.334 514.581 192.573 514.424 192.893 514.268C193.213 514.111 193.452 513.955 193.852 513.798C194.171 513.72 194.491 513.642 194.81 513.642C195.929 513.642 196.888 513.955 197.527 514.581C198.166 515.207 198.485 516.146 198.485 517.242C198.485 518.337 197.926 519.511 196.808 520.607L192.493 524.833C192.094 524.989 191.934 525.068 191.695 525.068Z" fill="#D0D0CF"/>
<path d="M246.26 520.764H238.191C237.712 520.764 237.153 520.92 236.753 521.233C235.875 521.938 235.155 523.033 235.155 524.911H241.387H249.296C249.296 523.033 248.577 522.016 247.698 521.311C247.299 520.92 246.82 520.764 246.26 520.764Z" fill="#D0D0CF"/>
<path d="M242.186 519.59C243.995 519.59 245.461 518.154 245.461 516.381C245.461 514.609 243.995 513.173 242.186 513.173C240.377 513.173 238.91 514.609 238.91 516.381C238.91 518.154 240.377 519.59 242.186 519.59Z" fill="#D0D0CF"/>
<path d="M99.5797 524.755L96.7835 521.938C97.5026 521.077 97.902 520.06 97.902 518.964C97.902 516.381 95.8248 514.347 93.1884 514.347C90.552 514.347 88.4748 516.46 88.4748 518.964C88.4748 521.547 90.552 523.581 93.1884 523.581C94.1471 523.581 95.1058 523.268 95.9047 522.721L98.7009 525.538C98.7808 525.694 98.9406 525.694 99.1803 525.694C99.3401 525.694 99.4998 525.616 99.5797 525.538C99.8194 525.381 99.8194 524.99 99.5797 524.755ZM93.1884 515.599C95.1058 515.599 96.7036 517.164 96.7036 519.042C96.7036 520.921 95.1058 522.486 93.1884 522.486C91.271 522.486 89.6732 520.921 89.6732 519.042C89.6732 517.086 91.271 515.599 93.1884 515.599Z" fill="#D0D0CF"/>
<path d="M145.997 513.642H138.806C137.608 513.642 136.569 514.659 136.569 515.833V522.876C136.569 524.05 137.608 525.068 138.806 525.068H145.997C147.195 525.068 148.234 524.05 148.234 522.876V515.833C148.234 514.659 147.275 513.642 145.997 513.642ZM145.837 520.137H143.2V522.72C143.2 522.876 143.041 523.033 142.881 523.033H142.082C141.922 523.033 141.762 522.876 141.762 522.72V520.137H139.126C138.966 520.137 138.806 519.981 138.806 519.824V519.042C138.806 518.885 138.966 518.729 139.126 518.729H141.762V516.146C141.762 515.989 141.922 515.833 142.082 515.833H142.881C143.041 515.833 143.2 515.989 143.2 516.146V518.729H145.837C145.997 518.729 146.156 518.885 146.156 519.042V519.824C146.156 519.981 145.997 520.137 145.837 520.137Z" fill="#D0D0CF"/>
<path d="M255.527 606.003H36.0366C17.2705 606.003 2 590.476 2 571.394V35.609C2 16.5273 17.2705 1 36.0366 1H255.527C274.293 1 289.563 16.5273 289.563 35.609V571.394C289.379 590.476 274.109 606.003 255.527 606.003ZM36.0366 1.93538C17.8224 1.93538 2.91991 17.0885 2.91991 35.609V571.394C2.91991 589.915 17.8224 605.068 36.0366 605.068H255.527C273.741 605.068 288.643 589.915 288.643 571.394V35.609C288.643 17.0885 273.741 1.93538 255.527 1.93538H36.0366Z" fill="#F7F7F7" stroke="#F7F7F7"/>
<path d="M277.455 540.487H14.1079V65.4932H277.455V540.487ZM15.0287 539.551H276.534V66.4293H15.0287V539.551Z" fill="#F7F7F7"/>
<path d="M291.743 108.974H288.378V71.6138H291.743V108.974ZM289.264 108.088H290.857V72.4991H289.264V108.088Z" fill="#F7F7F7"/>
<path d="M291.743 153.415H288.378V116.232H291.743V153.415ZM289.264 152.53H290.857V117.118H289.264V152.53Z" fill="#F7F7F7"/>
<path d="M3.36415 153.36H0V116H3.36415V153.36ZM0.885303 152.474H2.47885V116.885H0.885303V152.474Z" fill="#F7F7F7"/>
<path d="M3 93H0V72H3V93ZM0.789474 92.5024H2.21053V72.4976H0.789474V92.5024Z" fill="#F7F7F7"/>
<path d="M3.36415 197.801H0V160.619H3.36415V197.801ZM0.885303 196.916H2.47885V161.504H0.885303V196.916Z" fill="#F7F7F7"/>
</svg>
