<svg width="31" height="30" viewBox="0 0 31 30" fill="none" xmlns="http://www.w3.org/2000/svg">
<circle cx="15.25" cy="15" r="15" fill="#2F89CE"/>
<path d="M7.26303 15.2806L10.7116 16.5665L12.0559 20.8918C12.1144 21.184 12.4651 21.2425 12.6989 21.0671L14.6278 19.489C14.8031 19.3136 15.0954 19.3136 15.3292 19.489L18.7777 22.0023C19.0115 22.1777 19.3622 22.0608 19.4207 21.7685L21.9925 9.49399C22.0509 9.20174 21.7587 8.90949 21.4664 9.02639L7.26303 14.5207C6.91232 14.6376 6.91232 15.1637 7.26303 15.2806ZM11.8806 15.9235L18.6608 11.7735C18.7777 11.7151 18.8946 11.8905 18.7777 11.9489L13.225 17.151C13.0496 17.3263 12.8742 17.5601 12.8742 17.8524L12.6989 19.2552C12.6989 19.4305 12.4066 19.489 12.3482 19.2552L11.6468 16.6834C11.4714 16.3911 11.5884 16.0404 11.8806 15.9235Z" fill="white"/>
</svg>
