<svg width="7" height="36" viewBox="0 0 7 36" fill="none" xmlns="http://www.w3.org/2000/svg">
<path fill-rule="evenodd" clip-rule="evenodd" d="M-178 0H7V4C5.51205 4 4.30583 5.34315 4.30583 7C4.30583 8.65685 5.51205 10 7 10V14C5.51205 14 4.30583 15.3431 4.30583 17C4.30583 18.6569 5.51205 20 7 20V25C5.51205 25 4.30583 26.3431 4.30583 28C4.30583 29.6569 5.51205 31 7 31V36H-178V31C-176.512 31 -175.306 29.6569 -175.306 28C-175.306 26.3431 -176.512 25 -178 25V20C-176.512 20 -175.306 18.6569 -175.306 17C-175.306 15.3431 -176.512 14 -178 14V10C-176.512 10 -175.306 8.65685 -175.306 7C-175.306 5.34315 -176.512 4 -178 4V0Z" fill="#F7DB50"/>
</svg>
