<svg width="17" height="25" viewBox="0 0 17 25" fill="none" xmlns="http://www.w3.org/2000/svg">
<path d="M15.1206 17.6113L12.5238 16.3129C14.2606 15.8178 15.3535 15.1761 15.8981 14.7944C16.4217 14.4273 16.618 13.7624 16.3753 13.1774C15.8596 11.9344 15.2537 9.56846 15.243 6.99123C15.2282 3.4093 12.4733 0.351464 8.9713 0.0298646C8.53737 -0.00995488 8.0991 -0.00995488 7.66543 0.0298646C4.1634 0.351464 1.40846 3.4093 1.3936 6.99123C1.3829 9.56846 0.777002 11.9344 0.261348 13.1774C0.0186926 13.7625 0.215008 14.4273 0.738661 14.7944C1.28327 15.1761 2.37596 15.8178 4.11289 16.3129L1.51618 17.6113C0.581035 18.079 0 19.019 0 20.0646V24.3479C0 24.708 0.291865 25 0.652066 25C1.01227 25 1.30413 24.708 1.30413 24.3479V20.0646C1.30413 19.5161 1.60886 19.0231 2.09948 18.7777L4.15792 17.7485C5.02134 19.204 6.60543 20.1214 8.31845 20.1214C10.0467 20.1214 11.6176 19.208 12.4792 17.7487L14.5373 18.7777C15.028 19.0231 15.3326 19.5161 15.3326 20.0646V24.3479C15.3326 24.708 15.6245 25 15.9847 25C16.3449 25 16.6367 24.708 16.6367 24.3479V20.0646C16.6367 19.0191 16.0559 18.079 15.1206 17.6113ZM8.31845 18.8173C7.09883 18.8173 5.96971 18.1797 5.32947 17.1628L5.7487 16.9532C6.44624 16.6043 6.87965 15.9032 6.87965 15.1232V14.355C7.3387 14.4788 7.8208 14.546 8.31845 14.546C8.81037 14.546 9.2936 14.4799 9.75717 14.3545V15.1232C9.75717 15.9031 10.1905 16.6043 10.8881 16.9532L11.3091 17.1636C10.6704 18.1831 9.54903 18.8173 8.31845 18.8173ZM11.0885 15.3225C11.0709 15.2587 11.0613 15.1918 11.0613 15.1232V13.8152C11.9101 13.33 12.6312 12.6218 13.1299 11.7442C14.0445 10.1347 13.714 8.05715 12.344 6.80414C11.3834 5.92567 9.66354 4.87854 6.9246 4.87854C6.75167 4.87854 6.58587 4.94723 6.46345 5.06955L5.0696 6.46332C4.81494 6.71798 4.81494 7.13086 5.0696 7.38543C5.32434 7.64008 5.73714 7.64008 5.99179 7.38543L7.19099 6.18624C8.93339 6.23501 10.3699 6.76597 11.4638 7.76641C12.389 8.61253 12.6129 10.0145 11.9961 11.0998C11.2453 12.4209 9.83603 13.2417 8.31845 13.2417C5.98788 13.2417 4.09193 11.3456 4.09193 9.01516C4.09193 8.65505 3.80007 8.3631 3.43987 8.3631C3.07967 8.3631 2.7878 8.65505 2.7878 9.01516C2.7878 11.067 3.91179 12.8601 5.57551 13.8147V15.1231C5.57551 15.1917 5.56586 15.2586 5.5483 15.3224C3.34962 14.867 2.0627 14.1296 1.48732 13.7265C1.47523 13.718 1.45637 13.7004 1.46602 13.6773C2.02706 12.3247 2.68634 9.76365 2.69782 6.9968C2.7099 4.07928 4.94431 1.58952 7.7848 1.32869C8.13953 1.29609 8.49712 1.29609 8.85202 1.32869C11.6924 1.58952 13.9268 4.07928 13.9389 6.9968C13.9504 9.76365 14.6097 12.3248 15.1707 13.6773C15.1804 13.7005 15.1617 13.7181 15.1497 13.7265C14.5741 14.1297 13.287 14.8671 11.0885 15.3225Z" fill="#1D1D1B"/>
<path d="M3.43982 20.9082C3.07962 20.9082 2.78775 21.2002 2.78775 21.5603V24.348C2.78775 24.7081 3.07962 25.0001 3.43982 25.0001C3.80002 25.0001 4.09188 24.7081 4.09188 24.348V21.5603C4.09188 21.2001 3.80002 20.9082 3.43982 20.9082Z" fill="#1D1D1B"/>
<path d="M13.197 20.9082C12.8368 20.9082 12.5449 21.2002 12.5449 21.5603V24.348C12.5449 24.7081 12.8368 25.0001 13.197 25.0001C13.5572 25.0001 13.849 24.7081 13.849 24.348V21.5603C13.849 21.2001 13.5572 20.9082 13.197 20.9082Z" fill="#1D1D1B"/>
</svg>
