<svg width="16" height="19" viewBox="0 0 16 19" fill="none" xmlns="http://www.w3.org/2000/svg">
<path d="M14.181 15.9238L12.4902 12.482C12.3702 12.2371 12.1834 12.0317 11.9514 11.8899L9.44618 10.3596L9.71398 9.13355C10.1149 9.72005 10.8856 9.91774 11.5171 9.59626L14.2217 8.21676C14.9217 7.8544 15.2045 6.99557 14.8573 6.28528C14.6898 5.9413 14.3915 5.67946 14.0299 5.55924C13.6725 5.4392 13.2821 5.46865 12.9465 5.6412L11.3973 6.42989L10.8707 5.53711C12.3708 5.17699 13.2962 3.66282 12.9379 2.15522C12.5796 0.647434 11.073 -0.282672 9.57271 0.0774417C8.07262 0.437555 7.14715 1.95172 7.50547 3.45951C7.53496 3.58349 7.57284 3.70559 7.61894 3.8245L4.28396 5.24039C3.85062 5.41107 3.52683 5.78281 3.41653 6.23726L2.74002 8.99063C2.55022 9.75906 3.01081 10.538 3.77317 10.7377C4.1369 10.8319 4.52303 10.7751 4.84458 10.58C5.17323 10.3829 5.40931 10.061 5.49982 9.68723L5.99624 7.65577L6.96538 7.25177L6.44153 10.1854L4.37653 12.5111L2.68963 11.009C2.10643 10.4879 1.21325 10.5406 0.694619 11.1269C0.68958 11.1327 0.684355 11.1386 0.679316 11.1446C0.167592 11.7453 0.227125 12.6469 0.813499 13.1743L3.51768 15.5837C4.08614 16.0689 4.92875 16.0404 5.46361 15.5177L8.05769 12.877L10.1296 14.1418L11.6351 17.2087C11.8719 17.6986 12.3663 18.0096 12.9082 18.0092C13.13 18.0096 13.3485 17.9569 13.5459 17.8556C14.246 17.4933 14.5285 16.6341 14.181 15.9238ZM13.1777 17.1245C12.8771 17.2701 12.516 17.1466 12.3659 16.8471L10.807 13.6742C10.7729 13.6044 10.7195 13.5459 10.6533 13.5054L8.20475 12.0096C8.04313 11.9109 7.83542 11.937 7.70292 12.0722L4.88209 14.944C4.6559 15.1666 4.29815 15.1788 4.05721 14.9723L1.35303 12.5631C1.09829 12.3333 1.07272 11.9411 1.29555 11.68C1.50998 11.4278 1.88715 11.3978 2.13816 11.6133C2.14152 11.6161 2.14469 11.6189 2.14805 11.6219L4.13877 13.3947C4.30673 13.5444 4.56353 13.5294 4.7132 13.3611L7.12588 10.6447C7.17608 10.5881 7.20948 10.5189 7.22292 10.4442L7.89887 6.65833C7.93788 6.43551 7.78951 6.2232 7.5678 6.184C7.49147 6.17068 7.41309 6.17931 7.34161 6.20894L5.4931 6.97962C5.37329 7.02951 5.28427 7.1338 5.25329 7.2604L4.70573 9.49085C4.66729 9.65253 4.56558 9.7917 4.42374 9.87685C4.28844 9.95975 4.12552 9.98357 3.97249 9.94325C3.64347 9.85585 3.44602 9.51843 3.52963 9.18682L4.20614 6.4327C4.25522 6.23408 4.3978 6.07221 4.58816 5.99925L7.83412 4.62257L8.33184 4.8392C8.539 4.92829 8.77843 4.83169 8.86708 4.62369C8.93035 4.47496 8.90067 4.3024 8.79094 4.18368C8.43934 3.81025 8.24357 3.31547 8.24413 2.80137C8.26093 1.7139 9.1515 0.845872 10.2335 0.862752C11.3154 0.879445 12.1791 1.77448 12.1625 2.86195C12.1459 3.9376 11.2736 4.80093 10.2031 4.80075C9.97787 4.80056 9.79535 4.98399 9.79516 5.21019C9.79498 5.2839 9.81476 5.35611 9.85208 5.41951L10.8668 7.14036C10.9466 7.27428 11.0948 7.35137 11.2497 7.33992L11.365 7.33092C11.418 7.32642 11.4696 7.31198 11.5171 7.28778L13.3145 6.37287C13.4562 6.29953 13.6213 6.28734 13.7721 6.33892C13.9265 6.39069 14.0537 6.50247 14.1256 6.64952C14.2777 6.95712 14.1564 7.33036 13.8531 7.48866L11.1486 8.86572C10.8475 9.01033 10.4866 8.8856 10.3377 8.58532L9.92468 7.74505C9.84984 7.5875 9.68226 7.49654 9.51019 7.51961C9.33812 7.5408 9.19815 7.66872 9.1612 7.83883L8.58752 10.4701C8.55038 10.641 8.62522 10.8167 8.77396 10.9077L11.5282 12.5901C11.6276 12.6514 11.7077 12.7398 11.7594 12.845L13.4496 16.2867C13.6006 16.5939 13.4799 16.966 13.1777 17.1245Z" fill="#1D1D1B"/>
</svg>
