<svg width="146" height="34" viewBox="0 0 146 34" fill="none" xmlns="http://www.w3.org/2000/svg">
<path fill-rule="evenodd" clip-rule="evenodd" d="M141.061 10.8368C141.061 11.1345 140.823 11.3926 140.505 11.3926C140.208 11.3926 139.95 11.1544 139.95 10.8368V0.575281C139.95 0.277558 140.188 0.0195312 140.505 0.0195312C140.803 0.0195312 141.061 0.25771 141.061 0.575281V10.8368Z" fill="#1D1D1B"/>
<path fill-rule="evenodd" clip-rule="evenodd" d="M135.586 1.11151C135.288 1.11151 135.03 0.873332 135.03 0.555757C135.03 0.25803 135.268 0 135.586 0H145.445C145.742 0 146 0.238181 146 0.555757C146 0.853483 145.762 1.11151 145.445 1.11151H135.586Z" fill="#1D1D1B"/>
<path fill-rule="evenodd" clip-rule="evenodd" d="M46.1805 10.8368C46.1805 11.1345 45.9424 11.3926 45.625 11.3926C45.3275 11.3926 45.0696 11.1544 45.0696 10.8368V0.575281C45.0696 0.277558 45.3076 0.0195312 45.625 0.0195312H52.9052C53.7582 0.0195312 54.5318 0.376799 55.1071 0.932549C55.6625 1.4883 56.0196 2.28223 56.0196 3.1357C56.0196 3.98917 55.6625 4.7831 55.1071 5.33885C54.5516 5.8946 53.7582 6.25187 52.9052 6.25187H51.6753L55.8807 10.4597C56.0989 10.678 56.0989 11.0154 55.8807 11.2338C55.6625 11.4521 55.3253 11.4521 55.1071 11.2338L49.9693 6.09308C49.8701 5.99384 49.8106 5.8549 49.8106 5.71597C49.8106 5.41824 50.0487 5.18007 50.3462 5.18007H52.9052C53.4606 5.18007 53.9764 4.96173 54.3334 4.58462C54.6905 4.22735 54.9285 3.7113 54.9285 3.15555C54.9285 2.5998 54.7103 2.08374 54.3334 1.72648C53.9764 1.36921 53.4606 1.13103 52.9052 1.13103H46.1606V10.8368H46.1805Z" fill="#1D1D1B"/>
<path fill-rule="evenodd" clip-rule="evenodd" d="M1.09103 10.8368C1.09103 11.1345 0.85299 11.3926 0.535598 11.3926C0.238044 11.3727 0 11.1345 0 10.8368V5.69612V0.575281C0 0.25771 0.238044 0.0195312 0.555435 0.0195312C0.555435 0.0195312 0.575272 0.0195312 0.595109 0.0195312H7.83561C8.6886 0.0195312 9.46224 0.376799 10.0375 0.932549C10.5929 1.4883 10.95 2.28223 10.95 3.1357C10.95 3.98917 10.5929 4.76325 10.0375 5.33885C9.48208 5.8946 8.6886 6.25187 7.83561 6.25187H1.09103V10.8368ZM1.09103 1.11118V5.16022H7.81577C8.37121 5.16022 8.88697 4.94189 9.24403 4.56477C9.6011 4.2075 9.83914 3.69145 9.83914 3.1357C9.83914 2.57995 9.62093 2.0639 9.24403 1.70663C8.88697 1.34936 8.37121 1.11118 7.81577 1.11118H1.09103Z" fill="#1D1D1B"/>
<path fill-rule="evenodd" clip-rule="evenodd" d="M91.1508 33.4245C91.1508 33.7223 90.9127 33.9803 90.5954 33.9803C90.2978 33.9803 90.0399 33.7421 90.0399 33.4245V23.163C90.0399 22.8653 90.278 22.6073 90.5954 22.6073C90.7739 22.6073 90.9127 22.6866 91.0119 22.8057L99.8989 32.055V23.1432C99.8989 22.8454 100.137 22.5874 100.454 22.5874C100.752 22.5874 101.01 22.8256 101.01 23.1432V33.4047C101.01 33.5436 100.95 33.6826 100.851 33.8017C100.633 34.02 100.296 34.0001 100.077 33.7818L91.1706 24.4928V33.4245H91.1508Z" fill="#1D1D1B"/>
<path fill-rule="evenodd" clip-rule="evenodd" d="M45.0696 23.1629C45.0696 22.8652 45.3076 22.6072 45.625 22.6072C45.9226 22.6072 46.1805 22.8454 46.1805 23.1629V32.8886H55.9006C56.1981 32.8886 56.456 33.1267 56.456 33.4443C56.456 33.742 56.2179 34.0001 55.9006 34.0001H45.6449C45.3473 34.0001 45.0894 33.7619 45.0894 33.4443V23.1629H45.0696Z" fill="#1D1D1B"/>
<path fill-rule="evenodd" clip-rule="evenodd" d="M68.6557 10.8366C68.6557 11.1343 68.4176 11.3923 68.1002 11.3923C67.8027 11.3923 67.5448 11.1541 67.5448 10.8366V0.773524C67.5448 0.4758 67.7828 0.217773 68.1002 0.217773C68.1201 0.217773 68.1399 0.217773 68.1399 0.217773H77.9592C78.2568 0.217773 78.4948 0.455952 78.4948 0.753676C78.4948 1.0514 78.2568 1.28958 77.9592 1.28958H68.6557V5.23937H77.9592C78.2568 5.23937 78.5146 5.47755 78.5146 5.79513C78.5146 6.09285 78.2766 6.35088 77.9592 6.35088H68.6557V10.8366Z" fill="#1D1D1B"/>
<path fill-rule="evenodd" clip-rule="evenodd" d="M32.9889 10.2811C33.2864 10.2811 33.5443 10.5192 33.5443 10.8368C33.5443 11.1345 33.3063 11.3926 32.9889 11.3926H23.1299C22.8323 11.3926 22.5745 11.1544 22.5745 10.8368V5.69612V0.575281C22.5745 0.277558 22.8125 0.0195312 23.1299 0.0195312H32.9889C33.2864 0.0195312 33.5443 0.25771 33.5443 0.575281C33.5443 0.873004 33.3063 1.13103 32.9889 1.13103H23.6853V5.18007H32.9889C33.2864 5.18007 33.5443 5.41824 33.5443 5.73582C33.5443 6.03354 33.3063 6.29157 32.9889 6.29157H23.6853V10.3406H32.9889V10.2811Z" fill="#1D1D1B"/>
<path fill-rule="evenodd" clip-rule="evenodd" d="M100.474 10.2811C100.772 10.2811 101.03 10.5192 101.03 10.8368C101.03 11.1345 100.792 11.3926 100.474 11.3926H90.6152C90.3177 11.3926 90.0598 11.1544 90.0598 10.8368V5.69612V0.575281C90.0598 0.277558 90.2979 0.0195312 90.6152 0.0195312H100.474C100.772 0.0195312 101.03 0.25771 101.03 0.575281C101.03 0.873004 100.792 1.13103 100.474 1.13103H91.1707V5.18007H100.474C100.772 5.18007 101.03 5.41824 101.03 5.73582C101.03 6.03354 100.792 6.29157 100.474 6.29157H91.1707V10.3406H100.474V10.2811Z" fill="#1D1D1B"/>
<path fill-rule="evenodd" clip-rule="evenodd" d="M145.445 32.8688C145.742 32.8688 146 33.107 146 33.4245C146 33.7223 145.762 33.9803 145.445 33.9803H135.586C135.288 33.9803 135.03 33.7421 135.03 33.4245V28.2838V23.1432C135.03 22.8454 135.268 22.5874 135.586 22.5874H145.445C145.742 22.5874 146 22.8256 146 23.1432C146 23.4409 145.762 23.6989 145.445 23.6989H136.141V27.7479H145.445C145.742 27.7479 146 27.9861 146 28.3037C146 28.6014 145.762 28.8594 145.445 28.8594H136.141V32.9085H145.445V32.8688Z" fill="#1D1D1B"/>
<path fill-rule="evenodd" clip-rule="evenodd" d="M122.196 7.99852C122.354 7.74049 122.672 7.64125 122.93 7.80004C123.188 7.95882 123.287 8.27639 123.128 8.53442C122.612 9.40774 121.898 10.1223 121.045 10.6185C120.192 11.1147 119.22 11.3727 118.208 11.3727C116.641 11.3727 115.213 10.7376 114.201 9.70547C113.17 8.67336 112.535 7.26413 112.535 5.69612C112.535 4.12811 113.17 2.69904 114.201 1.68678C115.253 0.654674 116.661 0.0195312 118.228 0.0195312C119.24 0.0195312 120.212 0.297406 121.065 0.773764C121.085 0.773764 121.085 0.793612 121.105 0.793612C121.938 1.28982 122.652 1.98451 123.148 2.85783C123.307 3.11585 123.207 3.45327 122.95 3.59221C122.692 3.751 122.354 3.65176 122.216 3.39373C121.819 2.69904 121.244 2.12344 120.569 1.72648L120.549 1.70663C119.875 1.30967 119.081 1.09134 118.248 1.09134C116.979 1.09134 115.828 1.60739 115.015 2.44102C114.182 3.27464 113.666 4.42584 113.666 5.67628C113.666 6.94656 114.182 8.09776 115.015 8.91154C115.848 9.74516 116.998 10.2612 118.248 10.2612C119.061 10.2612 119.855 10.0429 120.549 9.64592C121.204 9.26881 121.799 8.69321 122.196 7.99852Z" fill="#1D1D1B"/>
<path fill-rule="evenodd" clip-rule="evenodd" d="M122.196 30.6059C122.354 30.3479 122.672 30.2487 122.93 30.4075C123.187 30.5662 123.287 30.8838 123.128 31.1418C122.612 32.0152 121.898 32.7297 121.045 33.2259C120.192 33.7221 119.22 33.9801 118.208 33.9801C116.641 33.9801 115.213 33.345 114.201 32.3129C113.17 31.2808 112.535 29.8716 112.535 28.3035C112.535 26.7355 113.17 25.3065 114.201 24.2942C115.233 23.2621 116.641 22.627 118.208 22.627C119.22 22.627 120.192 22.9048 121.045 23.3812C121.065 23.3812 121.065 23.401 121.085 23.401C121.918 23.8972 122.632 24.5919 123.128 25.4652C123.287 25.7233 123.187 26.0607 122.93 26.1996C122.672 26.3584 122.335 26.2592 122.196 26.0012C121.799 25.3065 121.224 24.7309 120.549 24.3339L120.529 24.3141C119.855 23.9171 119.061 23.6988 118.228 23.6988C116.959 23.6988 115.808 24.2148 114.995 25.0484C114.162 25.8821 113.646 27.0333 113.646 28.2837C113.646 29.554 114.162 30.7052 114.995 31.519C115.828 32.3526 116.979 32.8686 118.228 32.8686C119.042 32.8686 119.835 32.6503 120.529 32.2533C121.204 31.8762 121.779 31.3006 122.196 30.6059Z" fill="#1D1D1B"/>
<path fill-rule="evenodd" clip-rule="evenodd" d="M68.5763 33.6826C68.4375 33.9605 68.1201 34.0597 67.8424 33.9208C67.5646 33.7818 67.4654 33.4643 67.6043 33.1864L70.1633 28.0457L72.7222 22.905C72.8611 22.6271 73.1785 22.5279 73.4562 22.6668C73.5752 22.7264 73.6546 22.8058 73.6942 22.905L76.2532 28.0457L78.8121 33.1864C78.951 33.4643 78.832 33.7818 78.5741 33.9208C78.2964 34.0597 77.979 33.9406 77.8401 33.6826L75.2812 28.5419L73.1983 24.3738L71.1154 28.5419L68.5763 33.6826Z" fill="#1D1D1B"/>
<path fill-rule="evenodd" clip-rule="evenodd" d="M68.12 21.4758H78.1576C78.4551 21.4758 78.713 21.714 78.713 22.0316C78.713 22.3293 78.475 22.5873 78.1576 22.5873H68.12C67.8225 22.5873 67.5646 22.3491 67.5646 22.0316C67.5844 21.714 67.8225 21.4758 68.12 21.4758Z" fill="#1D1D1B"/>
<path fill-rule="evenodd" clip-rule="evenodd" d="M23.606 33.6626C23.4671 33.9405 23.1497 34.0397 22.872 33.9008C22.5943 33.7618 22.4951 33.4443 22.634 33.1664L25.1929 28.0257L27.7519 22.885C27.8908 22.6071 28.2082 22.5079 28.4859 22.6468C28.6049 22.7064 28.6842 22.7858 28.7239 22.885L31.2829 28.0257L33.8419 33.1664C33.9807 33.4443 33.8617 33.7618 33.6038 33.9008C33.3261 34.0397 33.0087 33.9206 32.8699 33.6626L30.3109 28.5219L28.228 24.3538L26.1451 28.5219L23.606 33.6626Z" fill="#1D1D1B"/>
<path fill-rule="evenodd" clip-rule="evenodd" d="M24.9548 29.1174H31.263C31.3027 29.1174 31.3423 29.1571 31.3423 29.1968V30.1495C31.3423 30.1892 31.3027 30.2289 31.263 30.2289H24.9548C24.9152 30.2289 24.8755 30.1892 24.8755 30.1495V29.1968C24.8755 29.1571 24.9152 29.1174 24.9548 29.1174Z" fill="#1D1D1B"/>
<path fill-rule="evenodd" clip-rule="evenodd" d="M0.0991211 33.4442V23.1827C0.0991211 22.885 0.337165 22.627 0.654557 22.627C0.674393 22.627 0.69423 22.627 0.69423 22.627H7.93473C8.78772 22.627 9.56136 22.9842 10.1366 23.54C10.7119 24.0957 11.0491 24.8897 11.0491 25.7431C11.0491 26.5966 10.6921 27.3905 10.1366 27.9463C9.99777 28.0852 9.85892 28.2043 9.70022 28.3035C9.85892 28.4028 9.99777 28.5417 10.1366 28.6608C10.6921 29.2166 11.0491 30.0105 11.0491 30.864C11.0491 31.7174 10.6921 32.4915 10.1366 33.0671C9.5812 33.6229 8.78772 33.9801 7.93473 33.9801H0.63472C0.337165 34 0.0991211 33.742 0.0991211 33.4442ZM1.19015 23.7186V32.8885H7.91489C8.47033 32.8885 8.98609 32.6702 9.34315 32.293C9.70022 31.9358 9.93826 31.4197 9.93826 30.864C9.93826 30.3082 9.72006 29.7922 9.34315 29.4349C8.98609 29.0776 8.47033 28.8394 7.91489 28.8394C7.89505 28.8394 7.89505 28.8394 7.87522 28.8394L7.91489 28.3035V27.7478C8.47033 27.7478 8.98609 27.5295 9.34315 27.1523C9.70022 26.7951 9.93826 26.279 9.93826 25.7233C9.93826 25.1675 9.72006 24.6515 9.34315 24.2942C8.98609 23.9369 8.47033 23.6988 7.91489 23.6988H1.19015V23.7186Z" fill="#1D1D1B"/>
<path fill-rule="evenodd" clip-rule="evenodd" d="M7.93471 28.8791C7.63715 28.8791 7.37927 28.6409 7.37927 28.3233C7.37927 28.0256 7.61732 27.7676 7.93471 27.7676H8.80754C9.10509 27.7676 9.36298 28.0058 9.36298 28.3233C9.36298 28.6211 9.12493 28.8791 8.80754 28.8791H7.93471Z" fill="#1D1D1B"/>
<path fill-rule="evenodd" clip-rule="evenodd" d="M0.813235 27.7676H8.47034C8.51001 27.7676 8.54968 27.8073 8.54968 27.847V28.7997C8.54968 28.8394 8.51001 28.8791 8.47034 28.8791H0.813235C0.773561 28.8791 0.733887 28.8394 0.733887 28.7997V27.847C0.753724 27.8073 0.773561 27.7676 0.813235 27.7676Z" fill="#1D1D1B"/>
</svg>
