<?xml version="1.0" standalone="no"?>
<!DOCTYPE svg PUBLIC "-//W3C//DTD SVG 20010904//EN"
 "http://www.w3.org/TR/2001/REC-SVG-20010904/DTD/svg10.dtd">
<svg version="1.0" xmlns="http://www.w3.org/2000/svg"
 width="260.000000pt" height="260.000000pt" viewBox="0 0 260.000000 260.000000"
 preserveAspectRatio="xMidYMid meet">
<metadata>
Created by potrace 1.11, written by Peter Selinger 2001-2013
</metadata>
<g transform="translate(0.000000,260.000000) scale(0.100000,-0.100000)"
fill="#000000" stroke="none">
<path d="M151 2456 c-52 -29 -50 19 -51 -1154 0 -1188 -3 -1134 55 -1160 20
-9 300 -12 1151 -12 1222 0 1166 -3 1192 55 17 38 17 2192 0 2230 -26 58 31
55 -1195 55 -917 -1 -1132 -3 -1152 -14z m881 -685 c126 -49 200 -154 202
-286 1 -138 -63 -240 -182 -286 -48 -19 -81 -23 -219 -27 l-163 -4 0 -184 0
-184 -90 0 -90 0 0 501 0 501 243 -4 c221 -4 247 -6 299 -27z m864 6 c107 -35
168 -107 181 -216 3 -29 1 -69 -7 -95 -13 -49 -69 -121 -100 -131 -28 -9 -25
-21 9 -34 38 -16 87 -68 105 -113 19 -44 21 -145 4 -200 -14 -46 -77 -122
-122 -145 -69 -36 -127 -43 -353 -43 l-223 0 0 501 0 501 228 -4 c172 -4 239
-9 278 -21z"/>
<path d="M670 1481 l0 -171 124 0 c67 0 138 5 157 11 98 33 137 141 87 239
-40 77 -58 85 -224 88 l-144 3 0 -170z"/>
<path d="M1570 1515 l0 -135 110 0 c167 0 211 26 217 128 7 114 -34 142 -209
142 l-118 0 0 -135z"/>
<path d="M1570 1096 l0 -156 118 0 c151 1 193 17 223 86 23 51 21 102 -6 155
-27 50 -66 63 -207 67 l-128 4 0 -156z"/>
</g>
</svg>
