<svg width="84" height="14" viewBox="0 0 84 14" fill="none" xmlns="http://www.w3.org/2000/svg">
<path d="M43 1L42.9889 1.49988L43 1ZM0.509949 11.9007C0.455132 12.1714 0.630096 12.4352 0.900742 12.49L5.31117 13.3834C5.58182 13.4382 5.84566 13.2633 5.90048 12.9926C5.9553 12.722 5.78034 12.4581 5.5097 12.4033L1.58931 11.6092L2.3834 7.68883C2.43822 7.41818 2.26326 7.15434 1.99261 7.09952C1.72197 7.0447 1.45812 7.21966 1.40331 7.49031L0.509949 11.9007ZM83 12C83.2806 11.5862 83.2804 11.5861 83.2802 11.5859C83.28 11.5858 83.2797 11.5855 83.2794 11.5853C83.2787 11.5849 83.2778 11.5843 83.2767 11.5835C83.2744 11.582 83.2712 11.5798 83.267 11.577C83.2588 11.5715 83.2467 11.5635 83.231 11.553C83.1995 11.5322 83.1531 11.5017 83.0919 11.4623C82.9697 11.3835 82.7887 11.2688 82.5504 11.1231C82.0739 10.8319 81.3681 10.417 80.4453 9.91828C78.5998 8.92092 75.8858 7.58805 72.4007 6.2388C65.431 3.54044 55.3734 0.775083 43.0111 0.500124L42.9889 1.49988C55.2139 1.77178 65.1563 4.50642 72.0397 7.17135C75.4812 8.50375 78.1571 9.81833 79.9699 10.798C80.8762 11.2878 81.5666 11.6939 82.029 11.9764C82.2602 12.1177 82.4343 12.2281 82.5499 12.3026C82.6076 12.3399 82.6508 12.3682 82.6791 12.387C82.6933 12.3963 82.7037 12.4033 82.7104 12.4078C82.7138 12.4101 82.7162 12.4117 82.7177 12.4127C82.7184 12.4132 82.719 12.4135 82.7192 12.4137C82.7194 12.4138 82.7194 12.4138 82.7195 12.4139C82.7194 12.4139 82.7194 12.4138 83 12ZM43.0111 0.500124C30.6374 0.224909 20.0724 2.99263 12.6024 5.82746C8.86667 7.24514 5.90244 8.68057 3.86989 9.76303C2.85352 10.3043 2.06985 10.7575 1.53887 11.0762C1.27338 11.2356 1.07103 11.3614 0.934334 11.4479C0.86599 11.4911 0.814049 11.5244 0.778839 11.5473C0.76123 11.5587 0.747803 11.5674 0.738594 11.5735C0.733994 11.5765 0.730446 11.5788 0.727959 11.5805C0.726707 11.5813 0.725731 11.5819 0.725014 11.5824C0.724663 11.5826 0.724327 11.5829 0.724144 11.583C0.723877 11.5832 0.723671 11.5833 1 12C1.27633 12.4167 1.27626 12.4168 1.27625 12.4168C1.27634 12.4167 1.27641 12.4167 1.27657 12.4165C1.27692 12.4163 1.27753 12.4159 1.27841 12.4153C1.28017 12.4142 1.28297 12.4123 1.28683 12.4098C1.29456 12.4047 1.30647 12.3969 1.32256 12.3865C1.35474 12.3657 1.40359 12.3343 1.46877 12.2931C1.59916 12.2106 1.79492 12.0889 2.05358 11.9336C2.57091 11.623 3.33969 11.1784 4.33994 10.6457C6.34064 9.58017 9.2663 8.16307 12.9572 6.7624C20.3404 3.96051 30.7754 1.22823 42.9889 1.49988L43.0111 0.500124Z" fill="black"/>
</svg>
