<svg width="16" height="16" viewBox="0 0 16 16" fill="none" xmlns="http://www.w3.org/2000/svg">
<path fill-rule="evenodd" clip-rule="evenodd" d="M4.18411 5.76798C4.29872 5.65772 4.45241 5.59747 4.61142 5.60047C4.77043 5.60347 4.92175 5.66947 5.03211 5.78398L8.00011 8.93438L10.9681 5.78398C11.0221 5.72451 11.0874 5.67647 11.1603 5.6427C11.2331 5.60894 11.312 5.59015 11.3923 5.58744C11.4725 5.58473 11.5525 5.59815 11.6275 5.62692C11.7024 5.65568 11.7709 5.69921 11.8287 5.7549C11.8865 5.8106 11.9326 5.87735 11.9642 5.95118C11.9958 6.02501 12.0122 6.10443 12.0125 6.18472C12.0128 6.26502 11.997 6.34457 11.966 6.41864C11.9351 6.49272 11.8895 6.55983 11.8321 6.61598L8.43211 10.216C8.37614 10.2741 8.30904 10.3202 8.23481 10.3518C8.16059 10.3833 8.08076 10.3996 8.00011 10.3996C7.91946 10.3996 7.83964 10.3833 7.76541 10.3518C7.69118 10.3202 7.62408 10.2741 7.56811 10.216L4.16811 6.61598C4.05785 6.50138 3.9976 6.34768 4.0006 6.18867C4.0036 6.02966 4.0696 5.87835 4.18411 5.76798Z" fill="white"/>
</svg>
