<svg width="15" height="14" viewBox="0 0 15 14" fill="none" xmlns="http://www.w3.org/2000/svg">
<path fill-rule="evenodd" clip-rule="evenodd" d="M14.4949 0.904976C14.7683 1.17834 14.7683 1.62156 14.4949 1.89493L7.49493 8.89493C7.22156 9.16829 6.77834 9.16829 6.50498 8.89493L4.40498 6.79493C4.13161 6.52156 4.13161 6.07834 4.40498 5.80498C4.67834 5.53161 5.12156 5.53161 5.39493 5.80498L6.99995 7.41L13.505 0.904976C13.7783 0.631609 14.2216 0.631609 14.4949 0.904976Z" fill="#E30613"/>
<path fill-rule="evenodd" clip-rule="evenodd" d="M2.1 1.4C1.91435 1.4 1.7363 1.47375 1.60503 1.60503C1.47375 1.7363 1.4 1.91435 1.4 2.1V11.9C1.4 12.0857 1.47375 12.2637 1.60503 12.395C1.7363 12.5263 1.91435 12.6 2.1 12.6H11.9C12.0857 12.6 12.2637 12.5263 12.395 12.395C12.5263 12.2637 12.6 12.0857 12.6 11.9V7C12.6 6.6134 12.9134 6.3 13.3 6.3C13.6866 6.3 14 6.6134 14 7V11.9C14 12.457 13.7788 12.9911 13.3849 13.3849C12.9911 13.7788 12.457 14 11.9 14H2.1C1.54305 14 1.0089 13.7788 0.615076 13.3849C0.221249 12.9911 0 12.457 0 11.9V2.1C0 1.54305 0.221249 1.0089 0.615076 0.615076C1.0089 0.221249 1.54305 0 2.1 0H9.8C10.1866 0 10.5 0.313401 10.5 0.7C10.5 1.0866 10.1866 1.4 9.8 1.4H2.1Z" fill="#E30613"/>
</svg>
