<svg width="304" height="316" viewBox="0 0 304 316" fill="none" xmlns="http://www.w3.org/2000/svg">
<path d="M225.536 187.617C170.671 187.896 161.796 222.156 158.838 251.124L157.494 263.936H146.466L145.121 251.124C142.164 222.156 133.02 187.895 80.0369 187.617C71.162 168.675 67.3967 153.355 67.3967 136.086C67.3967 92.9128 101.553 52.5231 152.114 52.5231C202.675 52.5231 236.293 92.6327 236.293 136.366C236.294 153.355 234.68 168.675 225.536 187.617ZM151.577 0.15741C68.2043 0.15741 -0.108337 70.9075 -0.108337 157.532C-0.108337 244.438 68.2043 315.187 151.577 315.187C235.755 315.187 303.799 244.438 303.799 157.532C303.799 70.9077 235.755 0.15741 151.577 0.15741Z" fill="#29B24A"/>
</svg>
