<svg width="30" height="30" viewBox="0 0 30 30" fill="none" xmlns="http://www.w3.org/2000/svg">
<circle cx="15" cy="15" r="15" fill="#DD4382"/>
<path d="M15.0007 8C13.0996 8 12.861 8.00831 12.1143 8.04229C11.3691 8.07642 10.8604 8.1944 10.4153 8.3675C9.95492 8.54629 9.56437 8.78546 9.17528 9.17469C8.7859 9.56377 8.54673 9.95431 8.36736 10.4146C8.19381 10.8598 8.07569 11.3686 8.04215 12.1135C8.00875 12.8602 8 13.0989 8 15C8 16.9011 8.00846 17.1389 8.04229 17.8856C8.07656 18.6308 8.19454 19.1395 8.3675 19.5846C8.54644 20.045 8.78561 20.4355 9.17485 20.8246C9.56379 21.214 9.95433 21.4537 10.4144 21.6325C10.8598 21.8056 11.3686 21.9236 12.1137 21.9577C12.8604 21.9917 13.0988 22 14.9998 22C16.901 22 17.1389 21.9917 17.8856 21.9577C18.6308 21.9236 19.14 21.8056 19.5854 21.6325C20.0457 21.4537 20.4356 21.214 20.8246 20.8246C21.214 20.4355 21.4531 20.045 21.6325 19.5847C21.8046 19.1395 21.9227 18.6307 21.9577 17.8858C21.9913 17.1391 22 16.9011 22 15C22 13.0989 21.9913 12.8603 21.9577 12.1137C21.9227 11.3685 21.8046 10.8598 21.6325 10.4147C21.4531 9.95431 21.214 9.56377 20.8246 9.17469C20.4352 8.78531 20.0458 8.54615 19.585 8.3675C19.1387 8.1944 18.6298 8.07642 17.8845 8.04229C17.1379 8.00831 16.9002 8 14.9985 8H15.0007ZM14.3727 9.26146C14.5591 9.26117 14.767 9.26146 15.0007 9.26146C16.8697 9.26146 17.0912 9.26817 17.8293 9.30171C18.5118 9.33292 18.8822 9.44696 19.1289 9.54277C19.4556 9.66965 19.6885 9.82131 19.9334 10.0663C20.1784 10.3113 20.33 10.5446 20.4572 10.8713C20.553 11.1178 20.6672 11.4882 20.6983 12.1707C20.7318 12.9086 20.7391 13.1303 20.7391 14.9984C20.7391 16.8665 20.7318 17.0882 20.6983 17.8261C20.6671 18.5086 20.553 18.879 20.4572 19.1255C20.3303 19.4521 20.1784 19.6847 19.9334 19.9296C19.6884 20.1746 19.4558 20.3263 19.1289 20.4531C18.8825 20.5494 18.5118 20.6631 17.8293 20.6944C17.0913 20.7279 16.8697 20.7352 15.0007 20.7352C13.1315 20.7352 12.91 20.7279 12.172 20.6944C11.4895 20.6629 11.1191 20.5488 10.8722 20.453C10.5455 20.3261 10.3122 20.1745 10.0672 19.9295C9.82221 19.6845 9.67054 19.4517 9.54337 19.1249C9.44756 18.8784 9.33337 18.508 9.30231 17.8255C9.26876 17.0876 9.26205 16.8659 9.26205 14.9966C9.26205 13.1274 9.26876 12.9069 9.30231 12.1689C9.33351 11.4864 9.44756 11.116 9.54337 10.8693C9.67025 10.5426 9.82221 10.3093 10.0672 10.0643C10.3122 9.81927 10.5455 9.6676 10.8722 9.54044C11.119 9.44419 11.4895 9.33044 12.172 9.29908C12.8178 9.26992 13.0681 9.26117 14.3727 9.25971V9.26146ZM18.7372 10.4237C18.2735 10.4237 17.8972 10.7996 17.8972 11.2635C17.8972 11.7272 18.2735 12.1035 18.7372 12.1035C19.201 12.1035 19.5772 11.7272 19.5772 11.2635C19.5772 10.7997 19.201 10.4235 18.7372 10.4235V10.4237ZM15.0007 11.4052C13.0154 11.4052 11.4058 13.0148 11.4058 15C11.4058 16.9852 13.0154 18.5941 15.0007 18.5941C16.9859 18.5941 18.5949 16.9852 18.5949 15C18.5949 13.0148 16.9858 11.4052 15.0005 11.4052H15.0007ZM15.0007 12.6667C16.2893 12.6667 17.334 13.7113 17.334 15C17.334 16.2886 16.2893 17.3333 15.0007 17.3333C13.7119 17.3333 12.6673 16.2886 12.6673 15C12.6673 13.7113 13.7119 12.6667 15.0007 12.6667V12.6667Z" fill="white"/>
</svg>
