<svg width="146" height="34" viewBox="0 0 146 34" fill="none" xmlns="http://www.w3.org/2000/svg">
<path fill-rule="evenodd" clip-rule="evenodd" d="M140.344 10.8236C140.344 11.1215 140.108 11.3797 139.793 11.3797C139.497 11.3797 139.241 11.1414 139.241 10.8236V0.556075C139.241 0.258178 139.478 0 139.793 0C140.088 0 140.344 0.238318 140.344 0.556075V10.8236Z" fill="white"/>
<path fill-rule="evenodd" clip-rule="evenodd" d="M134.907 1.09213C134.611 1.09213 134.355 0.853812 134.355 0.536055C134.355 0.238158 134.592 -0.0200195 134.907 -0.0200195H144.698C144.994 -0.0200195 145.25 0.218298 145.25 0.536055C145.25 0.833952 145.014 1.09213 144.698 1.09213H134.907Z" fill="white"/>
<path fill-rule="evenodd" clip-rule="evenodd" d="M46.1141 10.8236C46.1141 11.1215 45.8777 11.3797 45.5625 11.3797C45.267 11.3797 45.0109 11.1414 45.0109 10.8236V0.556075C45.0109 0.258178 45.2473 0 45.5625 0H52.7928C53.6399 0 54.4083 0.357477 54.9796 0.913551C55.5312 1.46963 55.8859 2.26402 55.8859 3.11799C55.8859 3.97196 55.5312 4.76636 54.9796 5.32243C54.428 5.8785 53.6399 6.23598 52.7928 6.23598H51.5713L55.7479 10.4463C55.9647 10.6647 55.9647 11.0023 55.7479 11.2208C55.5312 11.4393 55.1963 11.4393 54.9796 11.2208L49.877 6.0771C49.7785 5.9778 49.7194 5.83879 49.7194 5.69977C49.7194 5.40187 49.9558 5.16355 50.2513 5.16355H52.7928C53.3444 5.16355 53.8566 4.94509 54.2113 4.56776C54.5659 4.21028 54.8023 3.69393 54.8023 3.13785C54.8023 2.58178 54.5856 2.06542 54.2113 1.70794C53.8566 1.35047 53.3444 1.11215 52.7928 1.11215H46.0944V10.8236H46.1141Z" fill="white"/>
<path fill-rule="evenodd" clip-rule="evenodd" d="M1.33356 10.8236C1.33356 11.1215 1.09715 11.3797 0.781929 11.3797C0.486413 11.3598 0.25 11.1215 0.25 10.8236V5.67991V0.556075C0.25 0.238318 0.486413 0 0.80163 0C0.80163 0 0.821331 0 0.841033 0H8.03193C8.87908 0 9.64742 0.357477 10.2187 0.913551C10.7704 1.46963 11.125 2.26402 11.125 3.11799C11.125 3.97196 10.7704 4.7465 10.2187 5.32243C9.66712 5.8785 8.87908 6.23598 8.03193 6.23598H1.33356V10.8236ZM1.33356 1.09229V5.14369H8.01223C8.56386 5.14369 9.07609 4.92523 9.43071 4.5479C9.78533 4.19042 10.0217 3.67407 10.0217 3.11799C10.0217 2.56192 9.80503 2.04556 9.43071 1.68808C9.07609 1.33061 8.56386 1.09229 8.01223 1.09229H1.33356Z" fill="white"/>
<path fill-rule="evenodd" clip-rule="evenodd" d="M90.7765 33.424C90.7765 33.7219 90.5401 33.9801 90.2249 33.9801C89.9293 33.9801 89.6732 33.7418 89.6732 33.424V23.1565C89.6732 22.8586 89.9096 22.6004 90.2249 22.6004C90.4022 22.6004 90.5401 22.6799 90.6386 22.799L99.4647 32.0537V23.1366C99.4647 22.8387 99.7011 22.5806 100.016 22.5806C100.312 22.5806 100.568 22.8189 100.568 23.1366V33.4042C100.568 33.5432 100.509 33.6822 100.41 33.8014C100.194 34.0198 99.8587 34 99.642 33.7815L90.7962 24.4871V33.424H90.7765Z" fill="white"/>
<path fill-rule="evenodd" clip-rule="evenodd" d="M45.0109 23.1562C45.0109 22.8583 45.2473 22.6001 45.5625 22.6001C45.858 22.6001 46.1141 22.8384 46.1141 23.1562V32.8875H55.7677C56.0632 32.8875 56.3193 33.1258 56.3193 33.4436C56.3193 33.7414 56.0829 33.9996 55.7677 33.9996H45.5822C45.2867 33.9996 45.0306 33.7613 45.0306 33.4436V23.1562H45.0109Z" fill="white"/>
<path fill-rule="evenodd" clip-rule="evenodd" d="M68.4354 10.8232C68.4354 11.1211 68.199 11.3793 67.8838 11.3793C67.5883 11.3793 67.3322 11.141 67.3322 10.8232V0.754317C67.3322 0.45642 67.5686 0.198242 67.8838 0.198242C67.9035 0.198242 67.9232 0.198242 67.9232 0.198242H77.6753C77.9708 0.198242 78.2072 0.43656 78.2072 0.734457C78.2072 1.03235 77.9708 1.27067 77.6753 1.27067H68.4354V5.22277H77.6753C77.9708 5.22277 78.2269 5.46109 78.2269 5.77885C78.2269 6.07675 77.9905 6.33492 77.6753 6.33492H68.4354V10.8232Z" fill="white"/>
<path fill-rule="evenodd" clip-rule="evenodd" d="M33.0129 10.2675C33.3084 10.2675 33.5645 10.5058 33.5645 10.8236C33.5645 11.1215 33.3281 11.3797 33.0129 11.3797H23.2215C22.9259 11.3797 22.6698 11.1414 22.6698 10.8236V5.67991V0.556075C22.6698 0.258178 22.9062 0 23.2215 0H33.0129C33.3084 0 33.5645 0.238318 33.5645 0.556075C33.5645 0.853972 33.3281 1.11215 33.0129 1.11215H23.7731V5.16355H33.0129C33.3084 5.16355 33.5645 5.40187 33.5645 5.71963C33.5645 6.01752 33.3281 6.2757 33.0129 6.2757H23.7731V10.3271H33.0129V10.2675Z" fill="white"/>
<path fill-rule="evenodd" clip-rule="evenodd" d="M100.036 10.2675C100.332 10.2675 100.588 10.5058 100.588 10.8236C100.588 11.1215 100.351 11.3797 100.036 11.3797H90.2446C89.949 11.3797 89.6929 11.1414 89.6929 10.8236V5.67991V0.556075C89.6929 0.258178 89.9293 0 90.2446 0H100.036C100.332 0 100.588 0.238318 100.588 0.556075C100.588 0.853972 100.351 1.11215 100.036 1.11215H90.7962V5.16355H100.036C100.332 5.16355 100.588 5.40187 100.588 5.71963C100.588 6.01752 100.351 6.2757 100.036 6.2757H90.7962V10.3271H100.036V10.2675Z" fill="white"/>
<path fill-rule="evenodd" clip-rule="evenodd" d="M144.698 32.868C144.994 32.868 145.25 33.1063 145.25 33.424C145.25 33.7219 145.014 33.9801 144.698 33.9801H134.907C134.611 33.9801 134.355 33.7418 134.355 33.424V28.2803V23.1366C134.355 22.8387 134.592 22.5806 134.907 22.5806H144.698C144.994 22.5806 145.25 22.8189 145.25 23.1366C145.25 23.4345 145.014 23.6927 144.698 23.6927H135.459V27.7441H144.698C144.994 27.7441 145.25 27.9824 145.25 28.3002C145.25 28.5981 145.014 28.8563 144.698 28.8563H135.459V32.9077H144.698V32.868Z" fill="white"/>
<path fill-rule="evenodd" clip-rule="evenodd" d="M121.609 7.98365C121.766 7.72547 122.082 7.62617 122.338 7.78505C122.594 7.94393 122.692 8.26168 122.535 8.51986C122.022 9.39369 121.313 10.1086 120.466 10.6051C119.619 11.1016 118.654 11.3598 117.649 11.3598C116.092 11.3598 114.674 10.7243 113.669 9.69159C112.645 8.65888 112.014 7.24883 112.014 5.67991C112.014 4.11098 112.645 2.68107 113.669 1.66822C114.713 0.635514 116.112 0 117.668 0C118.673 0 119.639 0.278037 120.486 0.754673C120.505 0.754673 120.505 0.774533 120.525 0.774533C121.353 1.27103 122.062 1.96612 122.554 2.83995C122.712 3.09813 122.613 3.43575 122.357 3.57477C122.101 3.73364 121.766 3.63435 121.628 3.37617C121.234 2.68107 120.663 2.10514 119.993 1.70794L119.974 1.68808C119.304 1.29089 118.516 1.07243 117.688 1.07243C116.427 1.07243 115.285 1.58879 114.477 2.4229C113.649 3.25701 113.137 4.40888 113.137 5.66005C113.137 6.93107 113.649 8.08294 114.477 8.8972C115.304 9.73131 116.447 10.2477 117.688 10.2477C118.496 10.2477 119.284 10.0292 119.974 9.63201C120.624 9.25467 121.215 8.67874 121.609 7.98365Z" fill="white"/>
<path fill-rule="evenodd" clip-rule="evenodd" d="M121.609 30.6038C121.766 30.3456 122.082 30.2463 122.338 30.4052C122.594 30.564 122.692 30.8818 122.535 31.14C122.022 32.0138 121.313 32.7288 120.466 33.2253C119.619 33.7218 118.654 33.9799 117.649 33.9799C116.092 33.9799 114.674 33.3444 113.669 32.3117C112.645 31.279 112.014 29.869 112.014 28.3C112.014 26.7311 112.645 25.3012 113.669 24.2883C114.694 23.2556 116.092 22.6201 117.649 22.6201C118.654 22.6201 119.619 22.8982 120.466 23.3748C120.486 23.3748 120.486 23.3947 120.505 23.3947C121.333 23.8911 122.042 24.5862 122.535 25.4601C122.692 25.7182 122.594 26.0559 122.338 26.1949C122.082 26.3538 121.747 26.2545 121.609 25.9963C121.215 25.3012 120.643 24.7253 119.974 24.3281L119.954 24.3082C119.284 23.911 118.496 23.6925 117.668 23.6925C116.408 23.6925 115.265 24.2089 114.457 25.043C113.63 25.8771 113.118 27.029 113.118 28.2802C113.118 29.5512 113.63 30.7031 114.457 31.5173C115.285 32.3514 116.427 32.8678 117.668 32.8678C118.476 32.8678 119.264 32.6493 119.954 32.2521C120.624 31.8748 121.195 31.2989 121.609 30.6038Z" fill="white"/>
<path fill-rule="evenodd" clip-rule="evenodd" d="M68.3567 33.6822C68.2187 33.9603 67.9035 34.0596 67.6277 33.9206C67.3519 33.7815 67.2534 33.4638 67.3913 33.1857L69.9327 28.0421L72.4742 22.8984C72.6121 22.6203 72.9273 22.521 73.2031 22.66C73.3213 22.7196 73.4001 22.7991 73.4395 22.8984L75.981 28.0421L78.5224 33.1857C78.6603 33.4638 78.5421 33.7815 78.286 33.9206C78.0102 34.0596 77.695 33.9404 77.557 33.6822L75.0156 28.5385L72.947 24.368L70.8784 28.5385L68.3567 33.6822Z" fill="white"/>
<path fill-rule="evenodd" clip-rule="evenodd" d="M67.9033 21.4683H77.8721C78.1676 21.4683 78.4237 21.7066 78.4237 22.0243C78.4237 22.3222 78.1873 22.5804 77.8721 22.5804H67.9033C67.6078 22.5804 67.3517 22.3421 67.3517 22.0243C67.3714 21.7066 67.6078 21.4683 67.9033 21.4683Z" fill="white"/>
<path fill-rule="evenodd" clip-rule="evenodd" d="M23.6943 33.6622C23.5564 33.9403 23.2412 34.0396 22.9654 33.9005C22.6895 33.7615 22.591 33.4438 22.7289 33.1657L25.2704 28.022L27.8118 22.8783C27.9497 22.6003 28.2649 22.501 28.5408 22.64C28.659 22.6996 28.7378 22.779 28.7772 22.8783L31.3186 28.022L33.8601 33.1657C33.998 33.4438 33.8798 33.7615 33.6236 33.9005C33.3478 34.0396 33.0326 33.9204 32.8947 33.6622L30.3533 28.5185L28.2846 24.348L26.216 28.5185L23.6943 33.6622Z" fill="white"/>
<path fill-rule="evenodd" clip-rule="evenodd" d="M25.034 29.1143H31.2989C31.3383 29.1143 31.3777 29.154 31.3777 29.1937V30.147C31.3777 30.1867 31.3383 30.2264 31.2989 30.2264H25.034C24.9946 30.2264 24.9552 30.1867 24.9552 30.147V29.1937C24.9552 29.154 24.9946 29.1143 25.034 29.1143Z" fill="white"/>
<path fill-rule="evenodd" clip-rule="evenodd" d="M0.348511 33.4437V23.1762C0.348511 22.8783 0.584924 22.6201 0.900141 22.6201C0.919842 22.6201 0.939543 22.6201 0.939543 22.6201H8.13044C8.97759 22.6201 9.74593 22.9776 10.3173 23.5337C10.8886 24.0897 11.2235 24.8841 11.2235 25.7381C11.2235 26.5921 10.8689 27.3865 10.3173 27.9425C10.1794 28.0816 10.0414 28.2007 9.88384 28.3C10.0414 28.3993 10.1794 28.5383 10.3173 28.6575C10.8689 29.2136 11.2235 30.008 11.2235 30.8619C11.2235 31.7159 10.8689 32.4905 10.3173 33.0664C9.76563 33.6225 8.97759 33.9799 8.13044 33.9799H0.88044C0.584924 33.9998 0.348511 33.7416 0.348511 33.4437ZM1.43207 23.7124V32.8876H8.11074C8.66237 32.8876 9.1746 32.6692 9.52922 32.2919C9.88384 31.9344 10.1202 31.418 10.1202 30.8619C10.1202 30.3059 9.90354 29.7895 9.52922 29.432C9.1746 29.0746 8.66237 28.8362 8.11074 28.8362C8.09104 28.8362 8.09104 28.8362 8.07134 28.8362L8.11074 28.3V27.744C8.66237 27.744 9.1746 27.5255 9.52922 27.1482C9.88384 26.7907 10.1202 26.2743 10.1202 25.7182C10.1202 25.1622 9.90354 24.6458 9.52922 24.2883C9.1746 23.9309 8.66237 23.6925 8.11074 23.6925H1.43207V23.7124Z" fill="white"/>
<path fill-rule="evenodd" clip-rule="evenodd" d="M8.13043 28.8758C7.83491 28.8758 7.5788 28.6375 7.5788 28.3197C7.5788 28.0219 7.81521 27.7637 8.13043 27.7637H8.99728C9.29279 27.7637 9.54891 28.002 9.54891 28.3197C9.54891 28.6176 9.31249 28.8758 8.99728 28.8758H8.13043Z" fill="white"/>
<path fill-rule="evenodd" clip-rule="evenodd" d="M1.05775 27.7637H8.66237C8.70177 27.7637 8.74117 27.8034 8.74117 27.8431V28.7964C8.74117 28.8361 8.70177 28.8758 8.66237 28.8758H1.05775C1.01835 28.8758 0.978943 28.8361 0.978943 28.7964V27.8431C0.998644 27.8034 1.01835 27.7637 1.05775 27.7637Z" fill="white"/>
</svg>
