<svg width="19" height="26" viewBox="0 0 19 26" fill="none" xmlns="http://www.w3.org/2000/svg">
<path d="M12.5137 5.7697C12.4164 5.70486 10.0879 4.19055 6.27471 4.95316C5.96115 5.01586 5.7355 5.29114 5.7355 5.61087V6.32778C5.7355 6.69822 6.03574 6.99854 6.40627 6.99854C6.77679 6.99854 7.07703 6.69822 7.07703 6.32778V6.1761C8.51398 5.97084 9.65078 6.13925 10.3807 6.33127C11.2601 6.56264 11.7559 6.87718 11.7723 6.88773C11.8859 6.96277 12.0142 6.99863 12.141 6.99863C12.3578 6.99863 12.5705 6.89372 12.6997 6.69983C12.9052 6.39164 12.8219 5.97514 12.5137 5.7697Z" fill="black"/>
<path d="M16.7169 17.364L13.3075 16.0854C13.0113 15.9744 12.8124 15.6873 12.8124 15.3709V13.651C12.9584 13.5346 13.0997 13.4104 13.2356 13.2785C14.3496 12.1975 14.963 10.7473 14.963 9.19538V7.91986L15.1549 7.53591C15.4983 6.84914 15.6799 6.08027 15.6799 5.31221V1.30919C15.6799 0.93875 15.3797 0.638428 15.0091 0.638428H7.53882C4.9631 0.638428 2.86773 2.73389 2.86773 5.31221C2.86773 6.08009 3.04919 6.84905 3.39262 7.53582L3.58455 7.91977V8.98485C3.58455 10.8298 4.42855 12.4981 5.73537 13.5865V15.3709C5.73537 15.6872 5.53637 15.9743 5.24017 16.0854L1.83091 17.3639C0.735779 17.7745 0 18.8362 0 20.0058V24.9677C0 25.3381 0.300233 25.6384 0.670762 25.6384C1.04129 25.6384 1.34152 25.3381 1.34152 24.9677V20.0059C1.34152 19.3924 1.72744 18.8356 2.30188 18.6201L5.71122 17.3416C5.89572 17.2723 6.06565 17.1773 6.21957 17.0632L8.60301 18.8508V24.9677C8.60301 25.3381 8.90324 25.6384 9.27377 25.6384C9.6443 25.6384 9.94453 25.3381 9.94453 24.9677V18.8508L12.3279 17.0632C12.4818 17.1774 12.6517 17.2724 12.8362 17.3416L16.2458 18.6201C16.8201 18.8355 17.206 19.3924 17.206 20.0059V24.9677C17.206 25.3381 17.5062 25.6384 17.8768 25.6384C18.2473 25.6384 18.5475 25.3381 18.5475 24.9677V20.0059C18.5477 18.8363 17.8119 17.7746 16.7169 17.364ZM9.27386 17.6769L6.98951 15.9637C7.04586 15.7738 7.07689 15.5748 7.07689 15.371V14.4203C7.70374 14.6969 8.38559 14.8605 9.09937 14.882C9.1584 14.8838 9.21716 14.8847 9.276 14.8847C10.042 14.8847 10.7842 14.7335 11.4708 14.446V15.371C11.4708 15.5749 11.5019 15.7738 11.5582 15.9637L9.27386 17.6769ZM12.3013 12.3158C11.4504 13.1415 10.3283 13.5767 9.13953 13.541C6.81628 13.4713 4.92616 11.4275 4.92616 8.98494V7.76147C4.92616 7.65728 4.90193 7.55461 4.85533 7.4615L4.59257 6.9359C4.34179 6.43443 4.20934 5.87296 4.20934 5.30961C4.20934 3.4736 5.70299 1.97995 7.53891 1.97995H14.3385V5.31221C14.3385 5.87296 14.2059 6.43443 13.9551 6.9359L13.6924 7.4615C13.6458 7.55469 13.6216 7.65728 13.6216 7.76147V9.19529C13.6216 10.3814 13.1527 11.4896 12.3013 12.3158Z" fill="black"/>
<path d="M4.25536 20.7122C3.88483 20.7122 3.58459 21.0125 3.58459 21.3829V24.9676C3.58459 25.338 3.88483 25.6383 4.25536 25.6383C4.62588 25.6383 4.92612 25.338 4.92612 24.9676V21.3829C4.92612 21.0125 4.62588 20.7122 4.25536 20.7122Z" fill="black"/>
<path d="M14.2923 20.7122C13.9218 20.7122 13.6216 21.0125 13.6216 21.3829V24.9676C13.6216 25.338 13.9218 25.6383 14.2923 25.6383C14.6629 25.6383 14.9631 25.338 14.9631 24.9676V21.3829C14.9631 21.0125 14.6629 20.7122 14.2923 20.7122Z" fill="black"/>
</svg>
