<svg width="18" height="18" viewBox="0 0 18 18" fill="none" xmlns="http://www.w3.org/2000/svg">
<path fill-rule="evenodd" clip-rule="evenodd" d="M1.80005 3.1498C1.80005 2.79176 1.94228 2.44838 2.19546 2.19521C2.44863 1.94204 2.79201 1.7998 3.15005 1.7998H4.18325C4.49057 1.79968 4.78874 1.9044 5.02847 2.09668C5.26821 2.28896 5.43516 2.55729 5.50175 2.8573L6.14615 5.758C6.22063 6.09381 6.16412 6.44539 5.98816 6.74094C5.8122 7.03649 5.53006 7.25373 5.19935 7.3483L4.35965 7.5886C3.99065 7.6939 3.78095 8.0881 3.92765 8.4436C4.44972 9.70578 5.21559 10.8526 6.18142 11.8184C7.14725 12.7843 8.29407 13.5501 9.55625 14.0722C9.91175 14.2189 10.306 14.0092 10.4113 13.6402L10.6516 12.8005C10.7461 12.4698 10.9634 12.1877 11.2589 12.0117C11.5545 11.8357 11.906 11.7792 12.2419 11.8537L15.1426 12.4981C15.4426 12.5647 15.7109 12.7316 15.9032 12.9714C16.0955 13.2111 16.2002 13.5093 16.2001 13.8166V14.8498C16.2001 15.2078 16.0578 15.5512 15.8046 15.8044C15.5515 16.0576 15.2081 16.1998 14.85 16.1998H13.5001C12.466 16.1998 11.4634 16.0648 10.5066 15.8128C8.50961 15.2825 6.68825 14.2337 5.22719 12.7727C3.76613 11.3116 2.71732 9.49025 2.18705 7.4932C1.92954 6.51626 1.79946 5.51012 1.80005 4.4998V3.1498Z" fill="white"/>
</svg>
