<svg width="18" height="18" viewBox="0 0 18 18" fill="none" xmlns="http://www.w3.org/2000/svg">
<path fill-rule="evenodd" clip-rule="evenodd" d="M1.80005 3.14999C1.80005 2.79195 1.94228 2.44857 2.19546 2.19539C2.44863 1.94222 2.79201 1.79999 3.15005 1.79999H4.18325C4.49057 1.79986 4.78874 1.90459 5.02847 2.09687C5.26821 2.28915 5.43516 2.55747 5.50175 2.85749L6.14615 5.75819C6.22063 6.09399 6.16412 6.44557 5.98816 6.74112C5.8122 7.03668 5.53006 7.25392 5.19935 7.34849L4.35965 7.58879C3.99065 7.69409 3.78095 8.08829 3.92765 8.44379C4.44972 9.70596 5.21559 10.8528 6.18142 11.8186C7.14725 12.7844 8.29407 13.5503 9.55625 14.0724C9.91175 14.2191 10.306 14.0094 10.4113 13.6404L10.6516 12.8007C10.7461 12.47 10.9634 12.1878 11.2589 12.0119C11.5545 11.8359 11.906 11.7794 12.2419 11.8539L15.1426 12.4983C15.4426 12.5649 15.7109 12.7318 15.9032 12.9716C16.0955 13.2113 16.2002 13.5095 16.2001 13.8168V14.85C16.2001 15.208 16.0578 15.5514 15.8046 15.8046C15.5515 16.0578 15.2081 16.2 14.85 16.2H13.5001C12.466 16.2 11.4634 16.065 10.5066 15.813C8.50961 15.2827 6.68825 14.2339 5.22719 12.7728C3.76613 11.3118 2.71732 9.49043 2.18705 7.49339C1.92954 6.51645 1.79946 5.5103 1.80005 4.49999V3.14999Z" fill="white"/>
</svg>
