<svg width="7" height="36" viewBox="0 0 7 36" fill="none" xmlns="http://www.w3.org/2000/svg">
<g clip-path="url(#clip0_1927_2857)">
<path fill-rule="evenodd" clip-rule="evenodd" d="M0 0H185V4C183.512 4 182.306 5.34315 182.306 7C182.306 8.65685 183.512 10 185 10V14C183.512 14 182.306 15.3431 182.306 17C182.306 18.6569 183.512 20 185 20V25C183.512 25 182.306 26.3431 182.306 28C182.306 29.6569 183.512 31 185 31V36H0V31C1.48795 31 2.69417 29.6569 2.69417 28C2.69417 26.3431 1.48795 25 0 25V20C1.48795 20 2.69417 18.6569 2.69417 17C2.69417 15.3431 1.48795 14 0 14V10C1.48795 10 2.69417 8.65685 2.69417 7C2.69417 5.34315 1.48795 4 0 4V0Z" fill="#F7DB50"/>
</g>
<defs>
<clipPath id="clip0_1927_2857">
<rect width="7" height="36" fill="white"/>
</clipPath>
</defs>
</svg>
