<svg width="31" height="30" viewBox="0 0 31 30" fill="none" xmlns="http://www.w3.org/2000/svg">
<circle cx="15.25" cy="15" r="15" fill="#48C95F"/>
<path d="M21.1951 9.04639C19.7134 7.56982 17.7378 6.74951 15.6524 6.74951C11.3171 6.74951 7.80488 10.2495 7.80488 14.5698C7.80488 15.937 8.18902 17.3042 8.84756 18.4526L7.75 22.4995L11.9207 21.4058C13.0732 22.0073 14.3354 22.3355 15.6524 22.3355C19.9878 22.3355 23.5 18.8355 23.5 14.5151C23.4451 12.4917 22.6768 10.5229 21.1951 9.04639ZM19.439 17.3589C19.2744 17.7964 18.5061 18.2339 18.122 18.2886C17.7927 18.3433 17.3537 18.3433 16.9146 18.2339C16.6402 18.1245 16.2561 18.0151 15.8171 17.7964C13.8415 16.9761 12.5793 15.0073 12.4695 14.8433C12.3598 14.7339 11.6463 13.8042 11.6463 12.8198C11.6463 11.8354 12.1402 11.3979 12.3049 11.1792C12.4695 10.9604 12.689 10.9604 12.8537 10.9604C12.9634 10.9604 13.128 10.9604 13.2378 10.9604C13.3476 10.9604 13.5122 10.9058 13.6768 11.2886C13.8415 11.6714 14.2256 12.6558 14.2805 12.7104C14.3354 12.8198 14.3354 12.9292 14.2805 13.0386C14.2256 13.1479 14.1707 13.2573 14.061 13.3667C13.9512 13.4761 13.8415 13.6401 13.7866 13.6948C13.6768 13.8042 13.5671 13.9136 13.6768 14.0776C13.7866 14.2964 14.1707 14.8979 14.7744 15.4448C15.5427 16.1011 16.1463 16.3198 16.3659 16.4292C16.5854 16.5386 16.6951 16.4839 16.8049 16.3745C16.9146 16.2651 17.2988 15.8276 17.4085 15.6089C17.5183 15.3901 17.6829 15.4448 17.8476 15.4995C18.0122 15.5542 19 16.0464 19.1646 16.1558C19.3841 16.2651 19.4939 16.3198 19.5488 16.3745C19.6037 16.5386 19.6037 16.9214 19.439 17.3589Z" fill="white"/>
</svg>
