<svg width="153" height="20" viewBox="0 0 153 20" fill="none" xmlns="http://www.w3.org/2000/svg">
<path d="M65.6107 0C59.7805 0.0344332 55.06 4.47568 55.06 9.94218C55.06 15.4302 59.8169 19.8837 65.6788 19.8837C68.4285 19.8837 70.9363 18.9024 72.8231 17.2933L72.8227 17.2929H72.8242C73.2113 16.9634 73.5717 16.6068 73.9026 16.2282H71.7276C71.4369 15.8999 71.1727 15.557 70.9356 15.2035H74.6871C74.9162 14.862 75.122 14.5072 75.3062 14.1398H70.317C70.1466 13.7982 69.9988 13.4502 69.873 13.0954H75.7502C76.1052 12.1042 76.2967 11.0435 76.2967 9.94218C76.2967 9.2107 76.2117 8.49899 76.0523 7.81251H69.5611C69.6421 7.45907 69.7431 7.11037 69.8635 6.7685H75.7437C75.6124 6.40376 75.4595 6.04895 75.2859 5.70398H70.3163C70.4954 5.34507 70.6986 4.9971 70.9252 4.6596H74.6744C74.4245 4.28703 74.1487 3.93122 73.8507 3.59581H71.7603C72.0839 3.23891 72.4391 2.90323 72.8248 2.59206C70.9386 0.982258 68.4305 0.000273129 65.6794 0.000273129C65.6555 -1.50119e-07 65.6329 0 65.6107 0Z" fill="#931B1D"/>
<path d="M90.5403 9.94665C90.5414 15.4375 85.79 19.8899 79.924 19.8916C74.0606 19.8933 69.3055 15.4425 69.3038 9.95075V9.94665C69.3019 4.45416 74.0548 0.00136726 79.9194 6.76649e-07C85.7835 -0.00200365 90.539 4.44906 90.5404 9.94118C90.5403 9.94118 90.5403 9.94364 90.5403 9.94665Z" fill="#F16622"/>
<path d="M90.5403 10.0554C90.5414 15.5462 85.79 19.9991 79.924 20.0001C74.0606 20.0021 69.3055 15.551 69.3038 10.0605V10.0554C69.3019 4.56416 74.0548 0.11123 79.9194 0.109864C85.7835 0.10786 90.539 4.55869 90.5404 10.0502C90.5403 10.0503 90.5403 10.0534 90.5403 10.0554Z" fill="#F7981D"/>
<path d="M65.6107 0.113861C59.7805 0.148935 55.06 4.5896 55.06 10.057C55.06 15.5459 59.8169 20.0001 65.6788 20.0001C68.4285 20.0001 70.9363 19.018 72.8231 17.4091L72.8227 17.4081H72.8242C73.2113 17.0787 73.5717 16.7233 73.9026 16.3432H71.7276C71.4369 16.0156 71.1727 15.6733 70.9356 15.3198H74.6871C74.9162 14.9779 75.122 14.6221 75.3062 14.255H70.317C70.1466 13.9131 69.9988 13.565 69.873 13.2108H75.7502C76.1052 12.2188 76.2967 11.1584 76.2967 10.057C76.2967 9.3258 76.2117 8.61366 76.0523 7.92748H69.5611C69.6421 7.57437 69.7431 7.2249 69.8635 6.88336H75.7437C75.6124 6.51832 75.4595 6.16338 75.2859 5.81811H70.3163C70.4954 5.46053 70.6986 5.11116 70.9252 4.77399H74.6744C74.4245 4.40175 74.1487 4.04618 73.8507 3.70937H71.7603C72.0839 3.35317 72.4391 3.01737 72.8248 2.70552C70.9386 1.09585 68.4305 0.11377 65.6794 0.11377C65.6555 0.113861 65.6329 0.113861 65.6107 0.113861Z" fill="#CB2026"/>
<path d="M69.4968 12.5873L69.6387 11.6877C69.5614 11.6877 69.4475 11.7184 69.3472 11.7184C68.9539 11.7184 68.9101 11.5227 68.9357 11.3779L69.2534 9.54173H69.8514L69.9959 8.54608H69.4322L69.5472 7.92773H68.4163C68.3918 7.95087 67.7487 11.4089 67.7487 11.8291C67.7487 12.4525 68.1219 12.7303 68.6494 12.7262C69.0615 12.7226 69.3837 12.6159 69.4968 12.5873Z" fill="white"/>
<path d="M69.8554 10.871C69.8554 12.3674 70.9094 12.7232 71.8079 12.7232C72.6376 12.7232 73.002 12.549 73.002 12.549L73.2016 11.5277C73.2016 11.5277 72.5709 11.7895 72.001 11.7895C70.7872 11.7895 71 10.9414 71 10.9414H73.2979C73.2979 10.9414 73.4457 10.2547 73.4457 9.97519C73.4457 9.278 73.0743 8.42773 71.8335 8.42773C70.6963 8.42801 69.8554 9.57448 69.8554 10.871ZM71.8383 9.3754C72.476 9.3754 72.3581 10.047 72.3581 10.1012H71.1031C71.1027 10.032 71.2214 9.3754 71.8383 9.3754Z" fill="white"/>
<path d="M78.9967 12.5855L79.1992 11.4303C79.1992 11.4303 78.6443 11.6921 78.2638 11.6921C77.462 11.6921 77.1405 11.1174 77.1405 10.5025C77.1405 9.25211 77.8304 8.56422 78.5991 8.56422C79.1748 8.56422 79.6374 8.86758 79.6374 8.86758L79.8217 7.74678C79.8217 7.74678 79.1361 7.48633 78.5488 7.48633C77.2435 7.48633 75.9731 8.54545 75.9731 10.5382C75.9731 11.8574 76.6593 12.7303 78.0085 12.7303C78.3896 12.7305 78.9967 12.5855 78.9967 12.5855Z" fill="white"/>
<path d="M63.2788 8.44629C62.5036 8.44629 61.9092 8.67909 61.9092 8.67909L61.7454 9.59108C61.7454 9.59108 62.2364 9.405 62.9774 9.405C63.3984 9.405 63.7059 9.44899 63.7059 9.76969C63.7059 9.96396 63.6684 10.0358 63.6684 10.0358C63.6684 10.0358 63.3368 10.0096 63.1829 10.0096C62.2055 10.0096 61.1782 10.4001 61.1782 11.5786C61.1782 12.5063 61.8516 12.7196 62.2694 12.7196C63.0672 12.7196 63.4101 12.2353 63.4291 12.2332L63.3919 12.6381H64.3872L64.8315 9.72251C64.8315 8.48609 63.6789 8.44629 63.2788 8.44629ZM63.5214 10.8189C63.5429 10.9972 63.4017 11.8321 62.721 11.8321C62.37 11.8321 62.2784 11.5806 62.2784 11.432C62.2784 11.1426 62.4466 10.7947 63.2755 10.7947C63.4678 10.7947 63.4885 10.8145 63.5214 10.8189Z" fill="white"/>
<path d="M65.8898 12.6976C66.144 12.6976 67.5997 12.7587 67.5997 11.3521C67.5997 10.0369 66.2525 10.2964 66.2525 9.76797C66.2525 9.50587 66.4721 9.42196 66.8733 9.42196C67.0328 9.42196 67.646 9.47006 67.646 9.47006L67.7891 8.53469C67.7891 8.53469 67.3921 8.45215 66.7464 8.45215C65.9092 8.45215 65.0609 8.76373 65.0609 9.83375C65.0609 11.047 66.4764 10.9243 66.4764 11.4349C66.4764 11.7758 66.0806 11.8038 65.7756 11.8038C65.2488 11.8038 64.7742 11.6343 64.7719 11.6422L64.6213 12.567C64.6476 12.5756 64.9409 12.6976 65.8898 12.6976Z" fill="white"/>
<path d="M88.3613 7.60579L88.1179 9.0228C88.1179 9.0228 87.6921 8.47289 87.0264 8.47289C85.99 8.47289 85.1268 9.64233 85.1268 10.9867C85.1268 11.8545 85.5868 12.7038 86.5289 12.7038C87.2063 12.7038 87.581 12.2616 87.581 12.2616L87.5318 12.639H88.6313L89.4956 7.60352L88.3613 7.60579ZM87.8366 10.3699C87.8366 10.9288 87.5404 11.675 86.9278 11.675C86.5207 11.675 86.3307 11.3552 86.3307 10.8533C86.3307 10.033 86.724 9.49016 87.22 9.49016C87.6276 9.49025 87.8366 9.75277 87.8366 10.3699Z" fill="white"/>
<path d="M57.1567 12.6437L57.8458 8.84265L57.9461 12.6437H58.7254L60.1784 8.84265L59.5345 12.6437H60.6917L61.5838 7.60352H59.7937L58.6791 10.6955L58.6211 7.60352H56.9717L56.0673 12.6437H57.1567Z" fill="white"/>
<path d="M74.5762 12.6489C74.9053 10.8975 74.9662 9.47458 75.752 9.73398C75.8896 9.05642 76.022 8.79437 76.1716 8.5071C76.1716 8.5071 76.1016 8.49316 75.9534 8.49316C75.4481 8.49316 75.0727 9.14067 75.0727 9.14067L75.1726 8.54626H74.1197L73.4153 12.6489H74.5762Z" fill="white"/>
<path d="M81.6051 8.44629C80.8299 8.44629 80.236 8.67909 80.236 8.67909L80.0725 9.59108C80.0725 9.59108 80.5625 9.405 81.3042 9.405C81.7248 9.405 82.0331 9.44899 82.0331 9.76969C82.0331 9.96396 81.9951 10.0358 81.9951 10.0358C81.9951 10.0358 81.6635 10.0096 81.5084 10.0096C80.5307 10.0096 79.5045 10.4001 79.5045 11.5786C79.5045 12.5063 80.1783 12.7196 80.5957 12.7196C81.3936 12.7196 81.7369 12.2353 81.7551 12.2332L81.7182 12.6381H82.7142L83.1582 9.72251C83.1586 8.48609 82.0064 8.44629 81.6051 8.44629ZM81.8481 10.8189C81.8697 10.9972 81.7292 11.8321 81.0473 11.8321C80.6967 11.8321 80.6059 11.5806 80.6059 11.432C80.6059 11.1426 80.7741 10.7947 81.6014 10.7947C81.7949 10.7947 81.815 10.8145 81.8481 10.8189Z" fill="white"/>
<path d="M84.0673 12.6489C84.3967 10.8975 84.4577 9.47458 85.2434 9.73398C85.381 9.05642 85.5134 8.79437 85.6638 8.5071C85.6638 8.5071 85.5926 8.49316 85.4453 8.49316C84.9386 8.49316 84.5642 9.14067 84.5642 9.14067L84.665 8.54626H83.6114L82.9066 12.6486H84.0674L84.0673 12.6489Z" fill="white"/>
<path d="M16.2645 15.9887L18.5176 4.146H22.0381L19.8554 15.9887H16.2645Z" fill="#3C58BF"/>
<path d="M16.2645 15.9887L19.1513 4.146H22.0381L19.8554 15.9887H16.2645Z" fill="#4276FC"/>
<path d="M32.5995 4.27631C31.8954 4.01315 30.7689 3.75 29.3607 3.75C25.8402 3.75 23.3055 5.39471 23.3055 7.7631C23.3055 9.5394 25.0657 10.4604 26.4739 11.0525C27.8821 11.6446 28.3045 12.0394 28.3045 12.5657C28.3045 13.3551 27.178 13.7499 26.1923 13.7499C24.7841 13.7499 24.0096 13.5525 22.8126 13.092L22.3197 12.8946L21.8269 15.592C22.6718 15.9209 24.2208 16.2498 25.8402 16.2498C29.5719 16.2498 32.0362 14.6051 32.0362 12.1052C32.0362 10.7236 31.1209 9.67097 29.0086 8.81572C27.7413 8.22363 26.9668 7.89468 26.9668 7.30258C26.9668 6.77628 27.6004 6.24997 29.0086 6.24997C30.2056 6.24997 31.0505 6.44733 31.6842 6.71049L32.0362 6.84206L32.5995 4.27631Z" fill="#3C58BF"/>
<path d="M32.5995 4.27631C31.8954 4.01315 30.7689 3.75 29.3607 3.75C25.8402 3.75 23.9392 5.39471 23.9392 7.7631C23.9392 9.5394 25.0657 10.4604 26.4739 11.0525C27.8821 11.6446 28.3045 12.0394 28.3045 12.5657C28.3045 13.3551 27.178 13.7499 26.1923 13.7499C24.7841 13.7499 24.0096 13.5525 22.8126 13.092L22.3197 12.8946L21.8269 15.592C22.6718 15.9209 24.2208 16.2498 25.8402 16.2498C29.5719 16.2498 32.0362 14.6051 32.0362 12.1052C32.0362 10.7236 31.1209 9.67097 29.0086 8.81572C27.7413 8.22363 26.9668 7.89468 26.9668 7.30258C26.9668 6.77628 27.6004 6.24997 29.0086 6.24997C30.2056 6.24997 31.0505 6.44733 31.6842 6.71049L32.0362 6.84206L32.5995 4.27631Z" fill="#4276FC"/>
<path d="M38.6547 4.146C37.8098 4.146 37.1761 4.21179 36.824 5.0013L31.5433 15.9887H35.3454L36.0495 14.0149H40.5557L40.9782 15.9887H44.3578L41.4006 4.146H38.6547ZM37.0353 12.0411C37.2465 11.449 38.4434 8.55412 38.4434 8.55412C38.4434 8.55412 38.7251 7.83039 38.9363 7.36985L39.1475 8.48832C39.1475 8.48832 39.8516 11.449 39.9924 12.1069H37.0353V12.0411Z" fill="#3C58BF"/>
<path d="M39.4996 4.146C38.6547 4.146 38.021 4.21179 37.6689 5.0013L31.5433 15.9887H35.3454L36.0495 14.0149H40.5557L40.9782 15.9887H44.3578L41.4006 4.146H39.4996ZM37.0353 12.0411C37.3169 11.3832 38.4434 8.55412 38.4434 8.55412C38.4434 8.55412 38.7251 7.83039 38.9363 7.36985L39.1475 8.48832C39.1475 8.48832 39.8516 11.449 39.9924 12.1069H37.0353V12.0411Z" fill="#4276FC"/>
<path d="M9.78686 12.4341L9.43481 10.7237C8.80113 8.75014 6.75926 6.57922 4.50616 5.52665L7.67458 16.0523H11.4767L17.1798 4.21094H13.3777L9.78686 12.4341Z" fill="#3C58BF"/>
<path d="M9.78686 12.4341L9.43481 10.7237C8.80113 8.75014 6.75926 6.57922 4.50616 5.52665L7.67458 16.0523H11.4767L17.1798 4.21094H14.0818L9.78686 12.4341Z" fill="#4276FC"/>
<path d="M0 4.146L0.633684 4.27755C5.13988 5.26423 8.23789 7.7638 9.43485 10.7238L8.16748 5.13267C7.95625 4.34333 7.32257 4.146 6.54807 4.146H0Z" fill="#FFBC00"/>
<path fill-rule="evenodd" clip-rule="evenodd" d="M146.837 2.69678H137.09C137.614 5.94605 140.758 8.9857 144.217 8.9857H151.973C152.078 8.67125 152.078 8.25199 152.078 7.93754C152.078 5.00272 149.772 2.69678 146.837 2.69678Z" fill="url(#paint0_linear_1252_240)"/>
<path fill-rule="evenodd" clip-rule="evenodd" d="M137.928 9.50977V17.3709H142.645V13.1783H146.837C149.143 13.1783 151.135 11.6061 151.764 9.50977H137.928Z" fill="#4DB45F"/>
<path fill-rule="evenodd" clip-rule="evenodd" d="M121.158 2.69678V17.3709H125.35C125.35 17.3709 126.398 17.3709 126.922 16.3228C129.752 10.6627 130.591 8.9857 130.591 8.9857H131.115V17.3709H135.832V2.69678H131.639C131.639 2.69678 130.591 2.80159 130.067 3.74493C127.656 8.56644 126.398 11.082 126.398 11.082H125.874V2.69678H121.158Z" fill="#4DB45F"/>
<path fill-rule="evenodd" clip-rule="evenodd" d="M101.243 17.3709V2.69678H105.959C105.959 2.69678 107.322 2.69678 108.056 4.79308C109.942 10.3483 110.152 11.082 110.152 11.082C110.152 11.082 110.571 9.7194 112.248 4.79308C112.982 2.69678 114.345 2.69678 114.345 2.69678H119.061V17.3709H114.345V9.50977H113.82L111.2 17.3709H109.104L106.483 9.50977H105.959V17.3709H101.243Z" fill="#4DB45F"/>
<defs>
<linearGradient id="paint0_linear_1252_240" x1="137.062" y1="5.84124" x2="152.078" y2="5.84124" gradientUnits="userSpaceOnUse">
<stop stop-color="#00B4E6"/>
<stop offset="1" stop-color="#088CCB"/>
</linearGradient>
</defs>
</svg>
